<mxfile host="65bd71144e" pages="2">
    <diagram id="-9-MlxivbOU4ElGbwME1" name="Flutter">
        <mxGraphModel dx="1600" dy="958" grid="1" gridSize="10" guides="1" tooltips="1" connect="1" arrows="1" fold="1" page="1" pageScale="1" pageWidth="850" pageHeight="1100" math="0" shadow="0">
            <root>
                <mxCell id="0"/>
                <mxCell id="1" parent="0"/>
                <mxCell id="H6nuu_9Q8sI5BkE7tHFI-3" value="" style="rounded=1;whiteSpace=wrap;html=1;" parent="1" vertex="1">
                    <mxGeometry x="60" y="100" width="960" height="500" as="geometry"/>
                </mxCell>
                <mxCell id="H6nuu_9Q8sI5BkE7tHFI-27" style="edgeStyle=orthogonalEdgeStyle;rounded=0;orthogonalLoop=1;jettySize=auto;html=1;exitX=1;exitY=0.5;exitDx=0;exitDy=0;fontSize=18;strokeWidth=3;" parent="1" source="H6nuu_9Q8sI5BkE7tHFI-2" target="H6nuu_9Q8sI5BkE7tHFI-25" edge="1">
                    <mxGeometry relative="1" as="geometry">
                        <Array as="points">
                            <mxPoint x="660" y="195"/>
                            <mxPoint x="660" y="340"/>
                        </Array>
                    </mxGeometry>
                </mxCell>
                <mxCell id="H6nuu_9Q8sI5BkE7tHFI-2" value="Flutter Framework" style="shape=image;verticalLabelPosition=bottom;labelBackgroundColor=#ffffff;verticalAlign=top;aspect=fixed;imageAspect=0;image=https://www.kindpng.com/picc/m/355-3557482_flutter-logo-png-transparent-png.png;" parent="1" vertex="1">
                    <mxGeometry x="400" y="115" width="140.62" height="160" as="geometry"/>
                </mxCell>
                <mxCell id="H6nuu_9Q8sI5BkE7tHFI-4" value="Frontend" style="text;html=1;align=center;verticalAlign=middle;resizable=0;points=[];autosize=1;strokeColor=none;fontSize=48;" parent="1" vertex="1">
                    <mxGeometry x="435" y="40" width="210" height="60" as="geometry"/>
                </mxCell>
                <mxCell id="H6nuu_9Q8sI5BkE7tHFI-6" style="edgeStyle=orthogonalEdgeStyle;rounded=0;orthogonalLoop=1;jettySize=auto;html=1;fontSize=48;strokeWidth=3;" parent="1" source="H6nuu_9Q8sI5BkE7tHFI-5" target="H6nuu_9Q8sI5BkE7tHFI-2" edge="1">
                    <mxGeometry relative="1" as="geometry"/>
                </mxCell>
                <mxCell id="H6nuu_9Q8sI5BkE7tHFI-5" value="Dart Programming Language" style="shape=image;verticalLabelPosition=bottom;labelBackgroundColor=#ffffff;verticalAlign=top;aspect=fixed;imageAspect=0;image=https://upload.wikimedia.org/wikipedia/commons/7/7e/Dart-logo.png;" parent="1" vertex="1">
                    <mxGeometry x="130" y="120" width="150" height="150" as="geometry"/>
                </mxCell>
                <mxCell id="H6nuu_9Q8sI5BkE7tHFI-22" style="edgeStyle=orthogonalEdgeStyle;rounded=0;orthogonalLoop=1;jettySize=auto;html=1;exitX=0.5;exitY=0;exitDx=0;exitDy=0;entryX=0;entryY=0.5;entryDx=0;entryDy=0;fontSize=18;strokeWidth=3;" parent="1" source="H6nuu_9Q8sI5BkE7tHFI-17" target="H6nuu_9Q8sI5BkE7tHFI-2" edge="1">
                    <mxGeometry relative="1" as="geometry">
                        <Array as="points">
                            <mxPoint x="223" y="350"/>
                            <mxPoint x="330" y="350"/>
                            <mxPoint x="330" y="195"/>
                        </Array>
                    </mxGeometry>
                </mxCell>
                <mxCell id="H6nuu_9Q8sI5BkE7tHFI-17" value="&lt;font style=&quot;font-size: 24px;&quot;&gt;Android Native&lt;/font&gt;" style="rounded=1;whiteSpace=wrap;html=1;fontSize=24;verticalAlign=top;labelPosition=center;verticalLabelPosition=bottom;align=center;" parent="1" vertex="1">
                    <mxGeometry x="115" y="410" width="215" height="140" as="geometry"/>
                </mxCell>
                <mxCell id="H6nuu_9Q8sI5BkE7tHFI-8" value="Kotlin" style="shape=image;verticalLabelPosition=bottom;labelBackgroundColor=#ffffff;verticalAlign=top;aspect=fixed;imageAspect=0;image=https://upload.wikimedia.org/wikipedia/commons/thumb/0/06/Kotlin_Icon.svg/512px-Kotlin_Icon.svg.png;fontSize=18;" parent="1" vertex="1">
                    <mxGeometry x="130" y="420" width="90" height="90" as="geometry"/>
                </mxCell>
                <mxCell id="H6nuu_9Q8sI5BkE7tHFI-13" value="Java" style="shape=image;verticalLabelPosition=bottom;labelBackgroundColor=#ffffff;verticalAlign=top;aspect=fixed;imageAspect=0;image=https://qph.fs.quoracdn.net/main-qimg-48b7a3d8958565e7aa3ad4dbf2312770;fontSize=18;" parent="1" vertex="1">
                    <mxGeometry x="230" y="410" width="100" height="100" as="geometry"/>
                </mxCell>
                <mxCell id="H6nuu_9Q8sI5BkE7tHFI-23" style="edgeStyle=orthogonalEdgeStyle;rounded=0;orthogonalLoop=1;jettySize=auto;html=1;exitX=0.5;exitY=0;exitDx=0;exitDy=0;entryX=0;entryY=0.5;entryDx=0;entryDy=0;fontSize=18;strokeWidth=3;" parent="1" source="H6nuu_9Q8sI5BkE7tHFI-18" target="H6nuu_9Q8sI5BkE7tHFI-2" edge="1">
                    <mxGeometry relative="1" as="geometry">
                        <Array as="points">
                            <mxPoint x="410" y="350"/>
                            <mxPoint x="330" y="350"/>
                            <mxPoint x="330" y="195"/>
                        </Array>
                    </mxGeometry>
                </mxCell>
                <mxCell id="H6nuu_9Q8sI5BkE7tHFI-18" value="iOS Native" style="rounded=1;whiteSpace=wrap;html=1;fontSize=24;verticalAlign=top;labelPosition=center;verticalLabelPosition=bottom;align=center;" parent="1" vertex="1">
                    <mxGeometry x="350" y="410" width="120" height="140" as="geometry"/>
                </mxCell>
                <mxCell id="H6nuu_9Q8sI5BkE7tHFI-14" value="Swift" style="shape=image;verticalLabelPosition=bottom;labelBackgroundColor=#ffffff;verticalAlign=top;aspect=fixed;imageAspect=0;image=data:image/png,iVBORw0KGgoAAAANSUhEUgAAAOEAAADhCAMAAAAJbSJIAAAAkFBMVEX/////VyL/SwD/SQD/VR7/VBz/RgD/Uhf/TxD/Tgv/URX//fz/TQD/Tw7/+PX/8Oz/vq7/4dn/9fL/cUn/rpr/YjL/7ej/183/49z/x7n/oIj/ZTf/w7T/gmH/a0D/pZD/zsL/lHn/taL/iGn/dU//gF7/e1f/uKf/Xy3/qZT/mX//0sf/v67/iGj/l33/jnAitIUVAAAMf0lEQVR4nO2d55ajOgyAx40a0jsJYdJnsrN5/7e7lBSKDSZY5O4cvl/3nDsbWyBLsiSbj4+WlpaWlpaWlpaWlpaWlpaWlpYkvXdPAJzF6d0zAOfzMHz3FICxPea/ew7ADDrk2373JGAZY9Obv3sSsHiMkd9tcAYEIXLtvnsakCxNhIzz4N3TAKQ7YQgx7Tdr6gKjAPL5izX1qIcimt703RMBY66FEiJdn717JmB8O5GIlGzfPRMohjqNRAwW47unAsUYxxIifPyl9qY7ub1EZE1+qb05mTcJEWPvsjewGzn7fH+JiHYWoEOJ+QP666f7SgxExG+Kb3rfoD9PHy8RIW0DOpQQH9SUJ15i4DWWkEOJ+f4B/PEhSrxEhN/kGN014I9/mQkJkQn5NMVMNUCHPGU0JeIBbKQi/mgjOK9xtdD/4C3uyARMxAFGaREh14SQ7sRAYKmxEWtAxNLc5QzDhVWrzEtE+Kp+kFlp3PuFqemrHzjENmhWxL/qR1mWvqC9TnFf/cDR4AbKiggQ3YzKZt8L4ittrH7gjzh3mgFgpCEri5jC3BgBUJ9ATbO2JhRxpXyYgbYusTffQfSBy/7oJcZmTkLaUW/YVppbYm/c4FEbHkAFd55biIGITL172mjsUvgHUzMwejoCyMRz1BSxs/og4+iUWMt+aBKY4ysfeZtXU4SsvfJxhhMdF9ubqxMtEeVeY6pxJERY/eZ7Hvi8fZFu2OFSRFRTvlM9Z51+BECFcUGQVVjxurkuslNsUjccWxM8SlO9Qd0QxKyipNc2FtEZqc1vzvJOP7Y26jemBwPRwphpFz9txSbVplw1RZb6DXHXC1YaOYgfXdeNLTvVlOY3dzpXQoTVh2/zsFxiFDRK3HeslHwpHJbrL4CW4iW03HpBS8/2vmZU7uPm2U3iYym66uPEMYmUUKwe67vhM0fKQriuy1+IgVEDyDB+Rhoj7gUZTu5Bln5WpkNrwUIMthm+qjEe2PtoNEe4GGfm/YEzR1V88+WIJKQAAWovLs4ywxf8wfjhvqiqTPxFtBBh9HRAIhGpJjKXh2eSEx+VPOKpUEuDBeOrGCHNn9sTJWv+Yhyen/sdy1Wyk+OHpvFamADsuzc3EQ3B9Ged54SY5SsY8cjZI94xIepuPzeXwBx+7LJNrBuKFTh/fvB911OAMr/t3hYG1fjbtGtyRiJtrsBCbGoCtwRRsJk+Knv4yHPs9jmpVkVxnhyC7cV9Dn7Nn+cOiR+9IFzHPsBJ28D0mpF4j7vPf/y8B5Hk6z+9HjeG66f0qvbOv0hLQfb7Acun4pAdx+v9TW8IyLqWZxRGpvED1EFa39fPUMpxOVveUdpNG7y/keZQ4C4CTJCSgu09RWCcFNu0k37uzKyRjP+0skKlXyIFKbX3EgaTcvp5s9Fk4FpeViZx7H17iSp33E8GybfEOSPxlbUP5v5V5yza5j+eHsAeI2SRNOLMyGnhOqtbFiquDQj5U2xMA58I1Gk7TnriQFMzWmijrIGg5DWbUBjUxC8R6CTRZ7qnJ6upcydn5V+L4fwyCRFRX1SMsI8pRWRWZpxcp4F4R1JIcdgWDe2qkShHN62IFGc0dZkXkVnVuzY5xe4sGtQZmylNrzUn01xzzHsySq5VF42EhBZAH0rMLLPWWCcVJXbPnHCk8vE7CQkpAztDvMqMTvEuaUwGeWsTZpWr7TYkJEQmXB/xV3Z4AyV3VNkncHsMlUqcMhIy9XXhB59Zc0K1TWKl5WKb+JFXKcKV29IAAnjydJ3vXEoGaD/cNIuOfOkByv1hgAPYCz50cxlNXX+6Rjv/v0NoSWdAAo5f5fzeBES4mJ6es5iUPA3ONBe+xeC9pP3rl0TeMWAuMWSQayIMDA59xNnPakaaokpdkrK9RYwDs4e64XfyMgRqeDc4K0EuiRKpxVOYMH3+GFTkFnPimbuna9+IrCE/H5nhWlC5SA4HewYs5xZD2CMTdxUpmi7RfrsvztPcUd+vlCbnFuN3tI/Xv82JUGPS3pNLQWkm9bCgm/nX3GyKfsuEcVzK8ymUqJeMww+flQt8GrM74r4mehOgx4S6pgtqPDf4vW0cOtAXagx5G4lQgDh5MWdCZStOxF0k3yFk9H1jKpKBRKtR5BajyY3Ez/8k5Q4DLPjjXzOOW4zQo6hxUaBuuiPc+5ckhJ+wEfzVNjzPH0HNMJW4IuK3mIzz0hSXLZKYDdzBxN0O3iS49j5OuGC2xoTbgzMUr98spIkbUbZiTTRQP1GX48C43XizjqyADZiaEGGAFjmO+UIreiO8BhW5uDvCaOYw7d+CGTHtu4+KRLQ6fvb3fuSi0ujnj41I+PFTVCoyJofCSVKyTBtEcece5x+jZiT84Ac391mUTTjjGrPnLAvRGpKw68l6MC566nAH52BQgYRNXYQ29OTXDo9kb0BJiTvzD1+s31VnKghRZTHO96kO5X1FAG7uCo2pU09Eds/ESeXZHjTjEGMG4s2S5GTjFMihkr4bTV6gMbPkrTyXqMWjK7s3jGlgd5HgUm1yecJYvJqSIh2syMalOECTwXK9aj+hN3wpwapoJyFFaXiQoamw7QE3iwoJGzUsYdFe6pdImO65aUBCwDqpUMRqxvAflJCf7v9VEn5sGlyLIH3t5fAr+TAS7t4iYYMiNhu1JUVsSlEbjbzTIjZkbprcPWXYNqOoDe6A8yI28hbJO28ePjWxFrW3Xudaf6chIeE7Bfz48Hl9ikppLCMsQlheVMWbQpoEA6tmeqoEyO49SaZurWx4GRioZb8KvZFUB9eLlPWYDptIidv7KnWIalBU1lCzaeTTIJ9gvr8802Z7xa07ihgX9CvUQqL/coDJoYH6FJTvxxIx2xfWnSV8U8oMQZhUuUN6I506OnAXY8AQwt7I9SaGjVuUjOBD9E/1i1HSG0Zn/Rj+Ae+96Zuq45uOZGP8d6Q/lnmF/hjh/FxyvLci8jWLWw3eIt/Amy37qtSmyl8fMb1/5MUwoWVcIIUxnCV/lsq/Bx3UYd+w7rG3q11jfFLh+ohnrYEaBNjm+BNlBodi+cA6eYRZ1/Y+ZAwwrNDVVSYikreOqb4tRrwxmGFduAqdhiVfAs40pTOTXkGCgMsIK/WKFQ78zzPnzailTbaqX+TCI6q9foWEab6xnpp4vVInZO/kKpcvPJgvv8X1ORlcHaPdQkm3+OwTwWyhzAptwtyWbKpj/dCvGQjMvyaduh1TQqp0swuqKVQ3NXfjv6iv3cGXq0Gmhtm5wmzEjRRBJGAeN5eK79Ke9z8noOKFVLp+d1lUTWEO0b2f7UzuZQ5np53nYDDlfEJZlQe/LM6L0UBjcUcfLfv+QGjDerPV1wGZ2NThpYuodkfGRqKySZllYqIx73Bdfm23/dVisVit/mzHm+VuPzE1gp2mhIupVkWUL8FTxnTDMU0TR5imYxi6/IkehejVumoa6zJQSMWG9n4DlU3FVL1yaAFd9lNP1Y6Fi9oNQANU7m+bn+udEGkemQR/it5IbeYPnOoN3/a66YbmmuDqu4ONwqxYA7xS0l/UPOjTLNSpLuHHfAJZg1fNS8fYhrt/aDG+eEfdVvtnNJW++K2dweSfcRsVMuApugClTRheP7q+6ID2NSmjxsmE3uHf2G1YNZK7K5BeCtXU+rxHb/cPrMaaF7gtaMF9Ov8Pah8o3ZjvVVXK9ICCRBDzakr4MV8DlFbk0B1iucf1brc+ujoxBbtXp35l9+K9YzkyTA7jWe8WsnR7s/Ghw81CaCqKSH3U8HKkBhn9yc18uBqR/JpRc2mrPW5SRmqipWDag2tOWVWdLxmOgUqBefmIuy1QvME6s2bUfe+qu7UakJGSc7/EdPg0tYNV+ZEd++Ri2HQcw2eJ1kP7mnyNij8j5B/g6rqBfJ5k02s/ceOv8nNeg78OTOo4WH8radc2eOZ2Aa5vG/ZdjXOlcD1Y+fpLT8K9L0Yl/jDHfDlRWui18Kjq+QH7GOchgD6TFAww+3SJmjdJnc7uhbVkH6K3CHmFRHe2nGi1u5x1gjav9bXYUV9ehYbTl5hv9w52Xq0BU71j/vgvD94NezobOPbcvXwdETYrH8ljFkaHfi0zEX7fDzdzeVtvsL16HWIakmIyAxPv76v9SE8uJsxH9fjYw9lpuQ+bMkwr2LJyLw6iUUeHRrzlYqpkZpu6X+x7ge5gcfo+eGcUyhJ1a0QE/9VxdHQeXccLlXrlNXFdK5/udD6YXfxV/3Tabk+nlX+ZDabqzwX2mlPSlpaWlpaWlpaWlpaWlpaWlhY5/gOcsMAbRV5O2AAAAABJRU5ErkJggg==;fontSize=18;" parent="1" vertex="1">
                    <mxGeometry x="367.5" y="425" width="85" height="85" as="geometry"/>
                </mxCell>
                <mxCell id="H6nuu_9Q8sI5BkE7tHFI-25" value="Target Platforms" style="rounded=1;whiteSpace=wrap;html=1;fontSize=18;verticalAlign=top;labelPosition=center;verticalLabelPosition=bottom;align=center;" parent="1" vertex="1">
                    <mxGeometry x="794.93" y="180" width="140.13" height="320" as="geometry"/>
                </mxCell>
                <mxCell id="H6nuu_9Q8sI5BkE7tHFI-15" value="" style="shape=image;verticalLabelPosition=bottom;labelBackgroundColor=#ffffff;verticalAlign=top;aspect=fixed;imageAspect=0;image=https://1000logos.net/wp-content/uploads/2016/10/Android-Logo.png;" parent="1" vertex="1">
                    <mxGeometry x="800" y="299.38" width="130" height="81.25" as="geometry"/>
                </mxCell>
                <mxCell id="H6nuu_9Q8sI5BkE7tHFI-16" value="" style="shape=image;verticalLabelPosition=bottom;labelBackgroundColor=#ffffff;verticalAlign=top;aspect=fixed;imageAspect=0;image=https://1000logos.net/wp-content/uploads/2017/02/iOS-Logo-2013.jpg;" parent="1" vertex="1">
                    <mxGeometry x="805.6600000000001" y="420" width="118.68" height="55" as="geometry"/>
                </mxCell>
                <mxCell id="H6nuu_9Q8sI5BkE7tHFI-24" value="" style="shape=image;verticalLabelPosition=bottom;labelBackgroundColor=#ffffff;verticalAlign=top;aspect=fixed;imageAspect=0;image=https://www.freepnglogos.com/uploads/logo-website-png/logo-website-website-logo-png-transparent-background-background-15.png;" parent="1" vertex="1">
                    <mxGeometry x="809.9300000000001" y="180" width="110" height="110" as="geometry"/>
                </mxCell>
            </root>
        </mxGraphModel>
    </diagram>
    <diagram id="kRHnFX0HKZOiBCirqPRN" name="Backend">
        <mxGraphModel dx="1213" dy="817" grid="1" gridSize="10" guides="1" tooltips="1" connect="1" arrows="1" fold="1" page="1" pageScale="1" pageWidth="850" pageHeight="1100" math="0" shadow="0">
            <root>
                <mxCell id="sNjBt-SSzu1dIGnqiuHq-0"/>
                <mxCell id="sNjBt-SSzu1dIGnqiuHq-1" parent="sNjBt-SSzu1dIGnqiuHq-0"/>
                <mxCell id="vA7bYmdtT8BDFeEWD2Vv-7" style="edgeStyle=orthogonalEdgeStyle;rounded=0;orthogonalLoop=1;jettySize=auto;html=1;exitX=0.875;exitY=0.5;exitDx=0;exitDy=0;exitPerimeter=0;fontSize=24;strokeWidth=3;entryX=0.001;entryY=0.413;entryDx=0;entryDy=0;entryPerimeter=0;" edge="1" parent="sNjBt-SSzu1dIGnqiuHq-1" source="vA7bYmdtT8BDFeEWD2Vv-5" target="vA7bYmdtT8BDFeEWD2Vv-4">
                    <mxGeometry relative="1" as="geometry"/>
                </mxCell>
                <mxCell id="vA7bYmdtT8BDFeEWD2Vv-5" value="Internet" style="ellipse;shape=cloud;whiteSpace=wrap;html=1;labelBackgroundColor=none;fontSize=24;align=center;verticalAlign=middle;" vertex="1" parent="sNjBt-SSzu1dIGnqiuHq-1">
                    <mxGeometry x="350.01" y="190" width="289.99" height="245" as="geometry"/>
                </mxCell>
                <mxCell id="vA7bYmdtT8BDFeEWD2Vv-6" style="rounded=0;orthogonalLoop=1;jettySize=auto;html=1;exitX=1;exitY=0.5;exitDx=0;exitDy=0;fontSize=24;strokeWidth=3;" edge="1" parent="sNjBt-SSzu1dIGnqiuHq-1" source="vA7bYmdtT8BDFeEWD2Vv-3">
                    <mxGeometry relative="1" as="geometry">
                        <mxPoint x="386" y="321" as="targetPoint"/>
                    </mxGeometry>
                </mxCell>
                <mxCell id="vA7bYmdtT8BDFeEWD2Vv-31" style="edgeStyle=none;rounded=0;orthogonalLoop=1;jettySize=auto;html=1;exitX=0.121;exitY=1.008;exitDx=0;exitDy=0;entryX=0.25;entryY=0;entryDx=0;entryDy=0;fontSize=18;strokeWidth=3;exitPerimeter=0;" edge="1" parent="sNjBt-SSzu1dIGnqiuHq-1" source="vA7bYmdtT8BDFeEWD2Vv-3" target="vA7bYmdtT8BDFeEWD2Vv-30">
                    <mxGeometry relative="1" as="geometry"/>
                </mxCell>
                <mxCell id="vA7bYmdtT8BDFeEWD2Vv-3" value="Frontend" style="rounded=1;whiteSpace=wrap;html=1;labelBackgroundColor=none;fontSize=24;verticalAlign=bottom;labelPosition=center;verticalLabelPosition=top;align=center;" vertex="1" parent="sNjBt-SSzu1dIGnqiuHq-1">
                    <mxGeometry x="80" y="237" width="250" height="170" as="geometry"/>
                </mxCell>
                <mxCell id="vA7bYmdtT8BDFeEWD2Vv-1" value="" style="shape=image;verticalLabelPosition=bottom;labelBackgroundColor=#ffffff;verticalAlign=top;aspect=fixed;imageAspect=0;image=https://www.pngitem.com/pimgs/m/120-1201519_mobile-png-clipart-png-download-transparent-iphone-x.png;" vertex="1" parent="sNjBt-SSzu1dIGnqiuHq-1">
                    <mxGeometry x="100" y="270" width="59.31" height="120" as="geometry"/>
                </mxCell>
                <mxCell id="vA7bYmdtT8BDFeEWD2Vv-2" value="" style="shape=image;verticalLabelPosition=bottom;labelBackgroundColor=#ffffff;verticalAlign=top;aspect=fixed;imageAspect=0;image=https://www.pngkit.com/png/detail/943-9432380_empty-computer-monitor-images-computer-frame-png.png;" vertex="1" parent="sNjBt-SSzu1dIGnqiuHq-1">
                    <mxGeometry x="190" y="270" width="123.01" height="110" as="geometry"/>
                </mxCell>
                <mxCell id="vA7bYmdtT8BDFeEWD2Vv-34" style="edgeStyle=orthogonalEdgeStyle;rounded=0;orthogonalLoop=1;jettySize=auto;html=1;exitX=0.5;exitY=1;exitDx=0;exitDy=0;entryX=1;entryY=0.75;entryDx=0;entryDy=0;fontSize=18;strokeWidth=3;" edge="1" parent="sNjBt-SSzu1dIGnqiuHq-1" source="vA7bYmdtT8BDFeEWD2Vv-4" target="vA7bYmdtT8BDFeEWD2Vv-32">
                    <mxGeometry relative="1" as="geometry"/>
                </mxCell>
                <mxCell id="vA7bYmdtT8BDFeEWD2Vv-4" value="" style="rounded=1;whiteSpace=wrap;html=1;labelBackgroundColor=none;fontSize=24;verticalAlign=bottom;labelPosition=left;verticalLabelPosition=top;align=right;spacingRight=-150;" vertex="1" parent="sNjBt-SSzu1dIGnqiuHq-1">
                    <mxGeometry x="680" y="144" width="630" height="410" as="geometry"/>
                </mxCell>
                <mxCell id="vA7bYmdtT8BDFeEWD2Vv-10" value="" style="shape=image;verticalLabelPosition=bottom;labelBackgroundColor=#ffffff;verticalAlign=top;aspect=fixed;imageAspect=0;image=https://camo.githubusercontent.com/f725b7a314d523d78005509f98c436a1fcf2883fd39cb9e5b83346f6bddb599a/687474703a2f2f6a736f6e6170692e6f72672f696d616765732f6a736f6e6170692e706e67;" vertex="1" parent="sNjBt-SSzu1dIGnqiuHq-1">
                    <mxGeometry x="431.2" y="330" width="127.61" height="40" as="geometry"/>
                </mxCell>
                <mxCell id="vA7bYmdtT8BDFeEWD2Vv-11" value="" style="shape=image;verticalLabelPosition=bottom;labelBackgroundColor=#ffffff;verticalAlign=top;aspect=fixed;imageAspect=0;image=https://www.internetmarketingmagicians.com/wp-content/uploads/2018/05/SSL-Certificate-Image-1024x458.jpeg;" vertex="1" parent="sNjBt-SSzu1dIGnqiuHq-1">
                    <mxGeometry x="439.21" y="250" width="111.59" height="50" as="geometry"/>
                </mxCell>
                <mxCell id="vA7bYmdtT8BDFeEWD2Vv-16" value="API Gateway" style="rounded=1;whiteSpace=wrap;html=1;labelBackgroundColor=none;fontSize=18;align=center;verticalAlign=bottom;labelPosition=center;verticalLabelPosition=top;" vertex="1" parent="sNjBt-SSzu1dIGnqiuHq-1">
                    <mxGeometry x="704" y="194" width="196" height="120" as="geometry"/>
                </mxCell>
                <mxCell id="vA7bYmdtT8BDFeEWD2Vv-15" value="" style="shape=image;verticalLabelPosition=bottom;labelBackgroundColor=#ffffff;verticalAlign=top;aspect=fixed;imageAspect=0;image=https://upload.wikimedia.org/wikipedia/commons/thumb/a/a8/Microsoft_Azure_Logo.svg/2560px-Microsoft_Azure_Logo.svg.png;" vertex="1" parent="sNjBt-SSzu1dIGnqiuHq-1">
                    <mxGeometry x="680" y="90" width="152.53" height="44" as="geometry"/>
                </mxCell>
                <mxCell id="vA7bYmdtT8BDFeEWD2Vv-17" value="" style="shape=image;verticalLabelPosition=bottom;labelBackgroundColor=#ffffff;verticalAlign=top;aspect=fixed;imageAspect=0;image=https://cdn.freebiesupply.com/logos/large/2x/flask-logo-png-transparent.png;" vertex="1" parent="sNjBt-SSzu1dIGnqiuHq-1">
                    <mxGeometry x="720" y="209" width="70.1" height="90" as="geometry"/>
                </mxCell>
                <mxCell id="vA7bYmdtT8BDFeEWD2Vv-18" value="" style="shape=image;verticalLabelPosition=bottom;labelBackgroundColor=#ffffff;verticalAlign=top;aspect=fixed;imageAspect=0;image=https://i.pinimg.com/originals/91/94/c9/9194c978fa63798b2e882e6fda5eb953.png;" vertex="1" parent="sNjBt-SSzu1dIGnqiuHq-1">
                    <mxGeometry x="801.93" y="214" width="80.15" height="80" as="geometry"/>
                </mxCell>
                <mxCell id="vA7bYmdtT8BDFeEWD2Vv-20" value="Face Recognition&lt;br&gt;Module" style="rounded=1;whiteSpace=wrap;html=1;labelBackgroundColor=none;fontSize=18;align=center;verticalAlign=bottom;labelPosition=center;verticalLabelPosition=top;" vertex="1" parent="sNjBt-SSzu1dIGnqiuHq-1">
                    <mxGeometry x="704" y="384" width="196" height="120" as="geometry"/>
                </mxCell>
                <mxCell id="vA7bYmdtT8BDFeEWD2Vv-19" value="" style="shape=image;html=1;verticalAlign=top;verticalLabelPosition=bottom;labelBackgroundColor=#ffffff;imageAspect=0;aspect=fixed;image=https://cdn1.iconfinder.com/data/icons/ios-11-glyphs/30/face_ID-128.png;fontSize=18;" vertex="1" parent="sNjBt-SSzu1dIGnqiuHq-1">
                    <mxGeometry x="720" y="409" width="70" height="70" as="geometry"/>
                </mxCell>
                <mxCell id="vA7bYmdtT8BDFeEWD2Vv-21" value="" style="shape=image;verticalLabelPosition=bottom;labelBackgroundColor=#ffffff;verticalAlign=top;aspect=fixed;imageAspect=0;image=https://i.pinimg.com/originals/91/94/c9/9194c978fa63798b2e882e6fda5eb953.png;" vertex="1" parent="sNjBt-SSzu1dIGnqiuHq-1">
                    <mxGeometry x="806.9399999999999" y="409" width="70.13" height="70" as="geometry"/>
                </mxCell>
                <mxCell id="vA7bYmdtT8BDFeEWD2Vv-23" value="Filesystem (logs)" style="shape=image;verticalLabelPosition=bottom;labelBackgroundColor=#ffffff;verticalAlign=top;aspect=fixed;imageAspect=0;image=https://gestaltit.com/wp-content/uploads/2018/01/icon-file.png;" vertex="1" parent="sNjBt-SSzu1dIGnqiuHq-1">
                    <mxGeometry x="942" y="194" width="126" height="126" as="geometry"/>
                </mxCell>
                <mxCell id="vA7bYmdtT8BDFeEWD2Vv-28" value="NoSQL Database" style="shape=image;verticalLabelPosition=bottom;labelBackgroundColor=#ffffff;verticalAlign=top;aspect=fixed;imageAspect=0;image=data:image/png,iVBORw0KGgoAAAANSUhEUgAAAgAAAAIACAYAAAD0eNT6AAAABHNCSVQICAgIfAhkiAAAAAlwSFlzAAALiQAAC4kBN8nLrQAAIABJREFUeJzs3Xd4XFeBPv733GmakUa99265y92Oe3oPKSQhIaSRwgI/lrILCxuM2bAsC2TDLt9dAgtOqEk2gQQCwaTZcezEjnu3ZVuyepdGGs1o2j2/P2QbGzd55s7cGd338zx6NBrrnvvGsWZe3XIOQEREREREREREREREREREREREREREREREREREREREREREREREREREREREREREREREREREREREREREREREREREREREREREREREREREREREREREREREREREREREREREREREREREFEeE3gGIYu3FFz9q2udqSYPZmwqhjH2EkCpMqhOqSIWQKZBwACJJCmkHkASIJAFpB0QSpLRKCJOANEkhTJBSERAmKaQJUihCSAEIVUKGIIUqhAxJIAQJVQiEpBQBAemTgBcQo0JIL4BRQIxKKb0CYkQKdRjSNAQph2CSQ0BoCKptKNVhcn3xrg+8ev8dElHiYwGghLdqFRRr8YIcv3m0QBGiQFVFgVBEHiSyAWRLIbNOPoZANqRIFSJx/+1LwCeAPkj0QsheeeoxeoVEj4DSqSroMEvZ4bBb21kYiOhcEvZFkIxj1c9n5EK1lCsSZaqQZUKiDEApgEIIFELKXAhh1jtnvJKQLgF0SIkOAdEihTwupDwuFRw3hXA8bdjd/LnPHfHpnZOIYosFgHS3ahUUlM8sVaS5RgpZKyFrhECNBKogUSqEsOudcSKTEhKQnUKIRkgckUI2AOKwSSgNIbunYfWd+916ZyQi7bEAUMw888wcS5ctWKsKZZqUmCogpgKok0CVAGx656Nzk1J2AOIwIPcLiH1CUfeqZtO+1fdu69U7GxGFjwWAomLVmnn5kOpsIdRZAGZIiKkQslZAWPTORtqQkF0C2AdgL4CdSkhuzwua9j/22LaA3tmI6OJYAChi//KzuSWqCM1XhZgFidlCyFmAyNc7F8WeBHwA9gopd0hF7FAEtqlJoztW37nfr3c2IjoTCwBdku+/sNDuHvHPlQILJeQiIcQCAIV656L4NXbXgtwB4AMJ8T6E+GD1/dua9c5FZHQsAHRB3/7V9Ax/0LRMVZXlAlgqhZzJw/ikgXZIbJJCrodiWveN+7buEwJS71BERsICQGdY9ZOFmTD5VggFyyXEcgFMB6DonYsmOCl7JbBBCLFeCanrnnho524WAqLoYgEwuFXvLDcrjcOLVAXXALhaAHPAN3zSmYTsAvCmkFhrCVr/8rVHNnfpnYloomEBMKBVv5hejKD5RkBcKyBXQohUvTMRnY+UkBDYLYC1UorXpyZXbrjzzv8L6Z2LKNGxABjEqp/Nng0hbwZwsxBilt55iMIn+yHFnwTE75NCtj9/+ZObhvVORJSIWAAmqLHZ9eYsg1DvAHCzgCjROxOR5iT8gFwHgd9Ki/IyJyciGj8WgAlESohvrpm9RArcKSFvF0IU6J0pEQihwGpxwGZxwGZJhs2SDKvZAbPJeuLDduqz5cRjRZggFAUCChShnPEYQkBKFVKqUKUKKUOQUkKVIUipIhgKIBjyIxjynfh88nEAgZAXvsDIiQ8P/IERBEO8hX5cpAwCYp0UeAEB629XP/JBv96RiOIZC8AEsGrNzHrA9AkAdwqBIr3z6EkRJiTbM5Biz4YzKRvJ9gzYbWlw2FJht6XDYUuHw5oKuy0NdpsTNksyLOb4XmpAVYOnSoHH54LX74Jn1DX22Df22TM6CPdoP9zeXgx7e+EPePSOrS8pgxDiTQn5K/iU365+bJvB/0KIzsYCkKC+9ZMFeX6r/16hivshMEPvPLFgUixITc5FmiMfacl5SE8pQFpyHlKTc5GSlI0UeyYctnQIwZsYAsFRuL19cHv7MOzthWukE66RTgy6O+HyjD32+ob0jhkTEnIYUrwEIZ/9xv07NvD2QqIxLAAJ5MUXP2raN3LsJgj1k0Limom4BK7NmoJMZzEyU4qRmVoy9thZjExnEVLsWeA/We34gx643J3od7eib6gF/UOt6B9uRb+7BUMj3ZBS1Tui5qREoxB4zozQ//7zA7va9M5DpCe+miaAJ38xuyAQxCMCeAQCxXrn0UKKPQs5aRVjH+kVyEkrR05aBRxJGXpHIwAhNYD+oRb0uJrQPXgMPa5j6HE1oX+oBSF1Aqz1I2VQAn9QpPI/X39w25s8KkBGxAIQx1Y/O3ulCnxaSHlLov62bzJZkZtegbz0GuRn1iI/oxp5GdVIsnLqgUSkyhD6h1rQOdCAzv4GdA00oHPgMNzePr2jhU/iiBR4JskS+Ok/3btnQO84RLHCAhBnnnlmjqXDqt4NIb4AoF7vPJfCpFiQl1GNoqwpKMqZioLMOmSnlUERJr2jUZSNjPajc6AB7b370dq7D+19BxKuFEiJEQj8DCHl6dUPbz2mdx6iaGMBiBOr1sxMF0J5TErx2US5kj8tOQ+luTNRnD0NRdlTkZ9RA5PJqncsihOukS609e1DW+9+tPTsRnvvgYQ4fSClDEGIVyDxvdUPbv9A7zxE0cICoLN/fW5elk8NfhECnxEQTr3znI8QCnLSK1CWU4/SvJkozalHanKu3rEogQRDfrT37kdzzy4c79qFlt7d8Pndese6ICmxXhFYveqB7e/onYVIaywAOln1qznZ8MsvCeDTEEjRO8+5ZKWWoiJ/LioL5qE8bw7sNp63J+1IqaKj/xAaOz/EsY6taO7ehWDIp3esc5KQGxSJ1ase3PGW3lmItMICEGOr1sxMB0xfAfAZIZCsd57T2W2pqCpYgKrChagsmIdUB3/Dp9gJhfxo6d2LY+1b0NC+CZ39DUCcXZwvITcC+OrqB3a8q3cWokixAMTID35QbetPS/0sJL4qBOLkXjeB/Mwa1BQtRk3hIhTnTOMkOhQ33N5eNLS9j4a2TTjWsQW+wIjekf5KytekKr+8+uGd+/WOQhQuFoAokxLiG8/NuhcQTwqgTO88ijChPG8O6sqWo654OZyObL0jEV2UqgbR1L0dB46vw8GWd+H26r/mj5QyJIA1MoRVqz+5o13vPESXigUgik4swfvfQogFeuYwmayoLliIyWUrMKl4Ce/BpwQn0dqzDwdb1mN/81sYGNb5vVfCDeCbBX7x9GOPbYv/2xyITmABiIJVa2amQyhPCohPAdDlmLoQCirz52FaxdWYXLIcNmtcXmdIFLG23n3Y0/gX7Dv+lt5HBvZLKT69+sFt6/QMQTReLAAa+8aa2fcCeAoCulxBV5g1GTOrrsfUsiuQnJSpRwQiXUipoqlrO/Y0rsW+prfgD+q1AKD8tSUk//5rD+/s0SkA0biwAGjkyV/MLgiE8IwAbor1vh22dMyovBazqm5CbkZVrHdPFHcCQS/2HX8bO47+Ac1dO2MfQMpeKcSnVz+w/cXY75xofFgANLDq2VkfhxT/Gdur+wUq8udi3qTbMKl4KRQlIZcKIIq6/uFWbG94FTuO/AEe32BM9y0h/w8W5e9W37tN/6sWif4GC0AEvv2r6RmjfvNPhRC3xmqfSVYnZlZej3m1tyMrrTRWuyVKeKGQH3uPv4kPD72Mtt59MduvBHqgigdWP7TtTzHbKdE4sACEadWa2Qsh8Hysbu3LSi3Fwsl3Y2bl9bCYk2KxS6IJq6PvIN4/8Gvsa3oLqgxFfX9SQgqB78oy59dWr1wfjPoOicaBBeASjd3XP/uLgPxXAWGJ9v5Kcmfgsikfx6TiJZykh0hjrpEufHDgeWw/8ir8gZhcNLjJpCp3P/HQ1pZY7IzoQlgALsGqZ+Y4YJM/F8Dt0d5XVcFCLJ/xEEpyZ0R7V0SG5/O7sfnQi/jgwPPw+oaiuzMpe6XA7ZxOmPTGAjBOTz47sygA06sCmBPN/VQXXoYVMx9GUfbUaO6GiM7BH/Bg86EX8f7+38Drc0VvRxJ+CTy2+sHtz0ZvJ0QXxgIwDt98dvYcFfg9gMJo7aM8bzaunP1pvvETxQF/0IP39/8Gm/b9KqrzCUjI76Jxx1dWr4YatZ0QnQcLwEWsfnb2Sinx+2gt2ZuTXomrZn8aNUWLozE8EUVgZLQf63f9FNsaXonaxYIS8lcoS32AFwdSrLEAXMDqNbNvkEK+BAjNL7t32NJxxaxPYVb1Tby4jyjO9Q+14M9bn0ZD28Yo7UG+kuEavvtznzvii9IOiM7CAnAeq56tvwMQv9b6Sn8hFMytuRWXz3qMi/IQJZjDre/h9Q+fwqBb+wWIJOQb8CkfWf3YNr3mMCaDYQE4h1XPzb5RqPJ3EELT6fUKsybjpoX/hPzMWi2HJaIYCob8eG/vc9iw9zmoqrZH7aWUawv9yk1cVZBigQXgb6z+2eylqpBrhRB2rcY0maxYMeOTWDz14zzcTzRBdA0cwSubvonO/sOajislfvONB7bfKwSkpgMT/Q2T3gHiyapnZ82QAm8IITS74K8wewruu+Jp1JUuhxDsW0QTRYo9E7NrboZJMaO5exek1OZCfiEwff3Ogqx1r3a8rsmAROfBd6QTvvXT+hy/SWwTECXajChw2ZR7cMWsT3GhHqIJrq13H17a8M8YdHdoN6jEZ77x4Pb/p92ARGdiAQDw4osfNe0bOfKGEGKlFuM5kjJw6+InUF14mRbDEVEC8Pnd+P37/4r9zW9rMp6EDChSWbnqwW3RuvWADI6nAABMucH2XSHEPVqMlZ9Zi/uv+m8UZk3WYjgiShBmkxVTy6+AxWxFY+c2IMJT+ALCJCGvu+qOwl+//bsOtzYpif7K8AVg1bOzrxYQ/63FWJNLV+Celd+DIyldi+GIKAGV5s5EQdYkHG59DyE1sov5hRBOVZXT173a+UuN4hGdYugC8J3/vcwZUAJrBURapGMtnPwx3HLZ12BSor5AIBHFuazUUkwqWoKDLevhD3ojG0yIqhW35LWue7VzhzbpiMYY+p40r8n7PS0u+ltZ/yiumfs58JIKIjopN6MKD13zY6SnFEQ8lhTi+08+O7NIg1hEpxi2AKxaM3shhHg00nGunfd5LJv+kBaRiGiCyXAW4aFrfoxMZ3FE4wiItKA0Pa1RLCIABi4AAvhOpGOsnPkoFtTdpUUcIpqgnI4c3Hflf8HpyIlsIIE7Vj07Z742qYgMWgBW/WzO9RBYFskYC+ruxLIZ/M2fiC4uPaUA913xg4jX/xBQI/7FhegkQxYAoaj/Esn2lQXzcc3cv9cqDhEZQE56Je5Y9s0IpwMXK1avmXWFZqHI0AxXAFavmbMYELPD3T4tJR93LP0XzulPRJesqmAhVs58JKIxVIjPahSHDM5w72Iq5KfD3VYIBbcv/ibstojvGiQig1o6/QGU582JYAR546rn5pRqFogMy1AF4Fs/rc8RwO3hbj9v0h0oyZ2hZSQiMhyBmxd9FWaTLbythTBByojvYCIyVAHwC3ETBKzhbOt0ZOOKWY9rHYmIDCjDWYTlMx4Oe3sBGfYvMkQnGaoAQODGcDddMu1+WM0OLdMQkYEtqLsTyfbMMLcWdat+OrdS00BkOIYpAKtenGIVEFeFs22qIxdzqm/ROhIRGZjFnIQlU+8LfwBFDfsXGiLAQAUAHns9BFLC2XRW9U0wmcI6c0BEdF71VTfCHOZriwCWahyHDMYwBUDI0PRwt51Zeb2WUYiIAABJVidqi5eEuzmvSKaIGKYASIiwCkBuRhUynFyDg4iiY3LpyvA2FKj+/gsL7dqmISMxTAEAUBfORiXZLNlEFD0l2WEfnFSGvL4aLbOQsRimAAggI5ztCrMnax2FiOiUtJR8OJLCenkCpBLubQRExikAUiCs6ftSwr5Nh4hofFLCLACKEuK0pBQ2wxQAgfAKgN0S2epdREQX47Clh7WdKsN7XSMCDFQAFMWihrNdSAa1jkJEdIZAyBfWdgIIaByFDMQwBSA5KaM3nO16Bo9pHYWI6AwjowNhbSdVk0vjKGQghikA2WllYTXl1p69WkchIjpFVYNwe8P6/QRmk3lI4zhkIIYpAAWZk8JaeutIx2YAUuM0RERjOvoPIxjyh7XtZVPv4hSlFDbDFICc9EpzONt5RgfQ1ntA6zhERACA5u6dYW1nMdtx+ZzHw2sORDBQAchLrw2rAADAkfZNWkYhIjplT9PasLbLTa+ADPI2JQqfgQpAdVJyUnj39B9q3aBxGiIioHvwGDr6DoW1bX5GLSBU3gZIYTNMARAC5vK8WWFt29F3iCWAiDS3ad8vw962snA+fAGPQ8M4ZDCGKQAAGisK5oa98Rvb/wuqDGkYh4iMrM/VjN2Nfw5rW0Uxo7pgIYa8fZyohMJmmAIwMjrYW1eyHIowhbV9n6sZWw+9rHEqIjKqN7b/EFKGNT8ZynJnwWpxYGCkK7wBiGCgAtDSfyg5OSkT1YWLwh5j3e6fYtQ/rGEqIjKifcffwqHWd8PefkbltQCA7qFGrSKRARmmAHQOHrUCQH31DWGP4fW58PqHT2mWiYiMZ2S0H69v+X7Y29ttaZhWfhWklKEdTW+GNb8JEWCkAuA6lgYAk4qXIi0lP+xxdh97PaILd4jIuFQZwv+9+88YGe0Pe4xZVTfCbLIipAaPj/iGw769mcgwBaCl93CllHJUUcxYMvUTEY315o7/xuG29zRKRkRG8Zet/4njXdvD3t5ksmL+pI8CAFyjvV1a5SJjMkwBUBFM8gaGDwBjDdrpyAl7LClVvLzh6+jmQkFENE6bD76AzQdfiGiMebW3nTqCeaxzO1cCpIgYpgAAQGP3bhcw1qJXzPhkRGP5Ax785p0vYcQb/qE8IjKGXcf+hD9/+HREY9gsyVg2/cFTX29vfKMq0lxkbIYqAFsb1xacfDy75mYUZU+NaLxBdzt+uvYRDAy3RZyNiCamvU1/waubnkSki4otnX4/7Laxif8CQd+RQU93kQbxyMAMVQA6B45OCgR9J+bdFLhxwZchRGR/BQPDbfjp2kfQ2X9Yg4RENJFsPfxb/Pa9b4R9v/9JBVmTsGjKvae+PtK1ozXCaETGKgAAsKdlfefJx/mZtVg05Z6Ixxzx9mPNXx5HY+fWiMcioolhw541+OPmf4/4zV9RzLhl0ROnJjGTUgbf3vuLyVpkJGMzXAHYcOCl6VJKz8mvr6h/HIVZkf8s+QMe/OrtL2D/8bcjHouIElcw5Mdv3/s63t75jCbjLZ/+EPIyqk99Pejp2ur2DeRpMjgZmuEKwGjQndncu/fDk18rihl3LH0SVkvka2qEQn68tOGf8c7OH3PdACIDGvb0YM3ax7Cn8S+ajFdduAhLpz9wxnNv7ftFkiaDk+EZrgAAwB+2P1MnpRw9+XWGswi3LPpnACLisaVU8e6en2HN2scx6O6IeDwiSgwNbRvxo9fuQ3vfAU3Gy3AW4valq8+4TsntG9h2tHNHvSY7IMMzZAEY8fXntfQd2Hz6c1PKLsfl9Y9qto/Wnj340R/vw96mNzQbk4jiT0gNYO3Wp/Hrt78Ij29QkzEt5iTctew7SLKmnnpOSil/t+U/kjXZAREMWgAA4Lebn6pXVbXn9OeWTn8Q9VU3arYPn9+Nlzc8gVc2fhP+oOfiGxBRQunoO4Sf/OlBfHDgec3GVBQz7lz+beRl1pzxfJ+7fVP7wJE6zXZEhmfYAuALedI2HHrxrHv3blr4lYhWDDyXXcf+hGf+eD+aIpgClIjiRyjkx9s7foT/ff0hdA0c0XBkgY9c9vWzXoOkVPtf2PitWg13RGTcAgAAHzT8frHHP3TGu7KimHHXiu+gqmCBpvvqH2rBc3/5O7z07tcw5OnWdGwiip3Gzq340R8/gQ17n9X8Yt/r5n0e0yuuPuv59QefP+D2D4Y/fznRORi6AADAmvVfK5BSPWM+X7PJirtX/jsq8udpvr99x9/CD1+9C+/tfQ4hlVN5EyWKYU8PXnr3a/j5G59Br6tJ49EFrl/wD5hfd+dZfzLk6d2yueG1xRrvkIgFwO3tK3h950/OOoZnNtlwz+XfQ3XhZZrvMxD04q0d/4P//sM9aGjbpPn4RKSdQHAUG/aswQ9fvQv7jr+l+fhCKPjI4icwr/b2s/4sFAq1r1n31epzbEYUMcMXAADY07J+fnPv/vV/+7zZZMPHLv+uphcGnq5/qAW/fvsL+M3bX0IPVxYkiitSqtje8Cr+69U78PbOZ6JyIa/JZMVHl30LMyuvP8f+5ejz739rcDToztR8x0QATHoHiJUr757ydYHzT/y/r/m94pkVK7ZbzfbC058XQkFdyTJIqDjetSMq2fqGm/Hh4d+ix3UMOanlSLbz551IPxL7m9/B/737Vew8+hr8gejcwZNsz8THL38aVYXnvt5o4+GX39/XumHuhZPij2+9cIBzkFNYzHoHiBdSqOafvPnFSZ+59pnDFpP1rKttV858FJnOYrz2wb8hGPJHIwH2H38b+4+/g8mly7F8+sNn3QZERNEjpYr9zW9j/e6fRf2IXF5GNT628vtISz73jL5Hu3as23jotyuiGoIMjwXgNP6Qz/nTt740/MiVT3eaFCX/b/98ZuX1yE2rxAvrvwzXSFeUUkgcaF6HA83rMal4KZbPeBgFWZOitC8iUtUg9ja9gff2/Rw9g41R319dyTLcuuQbsJrPPf145+CxDS9t/u6KqAchw4t87tsE8e3f3R4UEOM65ZGVUtT40MrvOBShnLOee3yDeOndJ9DY+eG5/lhztcVLsGjKPSjPmx2T/REZgS8wgm2Hf4fNB1+Mya25JsWCK2d/Ggsn333e7xn09Gz+0Vufmyvk+E7PqlJ+6qu3vfwjzUKSofAagHPw+oczjnRt7Z5ZdnlACHHW1JsWcxJmVF4Lk2LG8a6dkJDaBz5N31Azdh39I/Y3vw1AIietHCaTJar7JJqoBobbsGHPs/jdxm/gcNtG+AIjUd9nekohPn7F05hcuvK83zPk6d3yzJtfqgfUcf9w8xoAigSPAFxArrPk6P0rvp1yviMBANDeux8vb1yF/qGWyEOOk9XiwIyKazF/0h3ISa+M2X6JEpWUKhraNmHLwZdwtGMzEOXSfrrpFVfjhvn/CJs15bzf0zfctvFnb39lgSpCl3RalkcAKBIsABeR7shtfXjldwNmk6XifN8TCHqxdusPsK3hlchChqEsbxbmTboDk0uWQ1F4SQfR6YZGurHz2GvYfuT3cLk7Y7rvZHsmblzwFdSVLLvg97UPHn33lxv+eYmU4ztCeToWAIoEC8A4OKzO/kcuf6otyZo8/ULf19S1DX94/9voH24NL2QEUuzZmF5+NaZXXI2CLK4XQsYVDPlxsGUddhx5DY2dWyGlGvMM08qvwvXzvwS7Le283yOllPvb3l//2vYfrgh3PywAFAkWgHFSTBbvJ1d8Z2dGcv4FVwoKhvxYt+t/8f7+X2k+T/h4ZaWWYlr51ZhefjWy0kp1yUAUS1KqaOrahj2Nb+BA8zsY9Q/rkiM9pRDXzfsCaouXXPD7pJSeN/c8t2t7018iWnmMBYAiwQJwia6b+ei66aXLlwpx4bG6+hvw+tanojZ50HgVZE3CtPKrMa38KqQ6cnXNQqQtidaevdjT9Ab2H38Lbm+fbklMJisWT/04lk67H2aT7YLfG1LVruc3PdnX2n9wSqT7ZQGgSLAAhKGuYOG2m+d+pkII5aJT9u07/hbe2PafUZw3YLwEyvLqMa38KkwqXgqngwuLUeJRZQjHu3bgYPN6HGxZHxcra9YULcZ1876ADGfRRb/X7RvY9uzbXy0dCbg0+QFkAaBIsACEKd2R0/qJpU/2223OGRf73mDIh437foGN+36FQNCrVYSI5GXWoLZwMWqKLkNxzjSIS7/+iCgm/AEPjnV+iIPN63G47T14fUN6RwIAFGTV4eo5n0V53pyLfq+UMrS/beO7r23/f8sxztuRx4MFgCLBAhABKRC6adZnNkwpWrRECHHRS/BHvP14d++z2Hb4d3G1FLDdlorqwoWoKVqM6sKFF7xwiSgWel1NaGjbhIa2TWju3hVXPy/pKYW4YtbjmFZ+FcbzEqqqatvLW77fe6x7x0yts7AAUCRYADRQkjll312L/inFZDKVjef7Xe5OrNv9E+w69rouVyhfiBAKirKnorboMlQXLkJ+Zi2PDlDUjYz2o7FzGxo7t+JYx4cYdLfrHeksqY5cLJn2CcyuuQUmZXxz9XQOHtvw/MYn632hUWc0MrEAUCRYADRiETbPbQs//2FZ9vQlF7tA8KQ+VzM27H0WexrX6nbHwMVYLQ6UZM9AWd5MlOXOQlH2FJhMVr1jUYLz+obQ3LMLjR1b0di1Fd0DxxDLyXkuRVpyHpZMux+zqm8a9xu/qqodr+34n7YDbRsvuJpfpFgAKBIsABorzqzbf+fCL5ssZtu4V/BxuTuxcd8vsOPoH6K00qB2TCYrirKnoCynHmX59SjJngGr5dyLmhCdNOjuQHPPLjR37URzzy70DDYhXt/wT8pwFmHx1PtQX3XDuN/4pZRqx+DR917c9G8zfSFP1M+lsQBQJFgAokCRpuA19Q+/N61k2TxFUc5aS+B83N4+fHDgBWxreAWj/vi40OlihFCQn1mLstx6FGTVoSCjFtlp5TxtYGC+wAja+w6grXc/2nr3oa1vP4Y9PXrHGrfinOm4bMq9qCtZdkn/jgNB7/4XN/+7bO07NDWK8c7AAkCRYAGIohRbRtedi75yJNtZfJkQYtx/14HgKHYd+xM2H3wBva7j0YwYFWaTDXkZ1SjInISCzEnIz6xFXnoVTx1MQKP+YXQONKCz/zA6+w+jrW//iX+z8f3b/d8SQkFdyTIsmnwPSnIvemPPGaRUBzYf+eOedw/+OqzpfCPBAkCRYAGIgdKc6Xtvm/v3wmaxX+JvBhJHOzZj84EXcaT9g7i7YPBSKMKEnPQK5GfUnnakoAyOpAy9o9E4qGoQfUPN6BlqQs/gMXT0HUbn4OGYz6+vtRR7FmZV34w5NR9BWvJ51/w6Jymlr7l37/u/2/afM33+EV2o/SImAAAgAElEQVT+IbMAUCRYAGJEVYWcX3X1B8un3FNgNlnKL3V7l7sT24/+HjuO/CGhDqdeTJLViczUEmQ5S5CVWoqs1BJkOUuRlVrKawt04PENon+oFf3uVvS6jqNn8Bh6hhoxMNQWtxeqXjqBivw5mFt7G+pKll3yIlpSStnnbt/08ubvlA56ekuiFHJcWAAoEiwAMaZIU3Bx3a3vL6z5SLWiKAWXuv3JZU23NbyCI23vT6AX5bOl2LNOlIOxYpDpLEGqIxepjhyk2LN4nUEYgiEfXO4uuDydGBzphMvdib6hZvS7WzEw3KbbHPqxkJachxmV16O+8npkpob3vu32DXz4yof/kdLWf2SyxvHCwgJAkWAB0IlJMY1ePvW+zTPLrqwzKcqlHXs8YWS0H3ub3sTuY6+jve+A1hHjmhAKkpMykerIgdOeDacjZ+yxIxdORzZS7TlwOnKQZI3K7ddxR0oVI6MDcHv7MOzthdvbO/bZM/a1y9MJl7sLHt+g3lFjymK2Y3LpCtRX3YCK/DkI9yVv2Nu75bXt/+No7jswTduEkWEBoEiwAOhMwOJbWnfrlvnVN5WZFFPYS/f1uZqxu/HP2N3457icREUvFnMS7LZUJFmdYx+WlL8+tqaMfVhO+/q0xxazDYpihhKDfzaqGkQw5EcgOIrRgBv+gAe+4Ah8gRH4Ap6xz/4ReHyD8Ppc8Phc8PqHxr4eHYLXP5TQ14hoyaRYUFWwAFPLr0Bd6XJYzeGdSpJSSvfowJbfb/uhU4uFe6KBBYAiwQIQJ6RAaFH1zR8srr0tz2yyVkcyVkffQexvfhv7j7+N/uFWrSIamIBJMUNRzDApZpgUCxTFdNrjk8+bTxUGVYYgpYSUIahShZTqqeeCIR+CIf+Jj7HHfPOOjKKYUZk/H9MqrkRd8TLYrClhjyWl9HW7jm/5485n8nuGjtdoGFNzLAAUCRaAOFRXsHD75dPuDaUkZc69lNsHz6WrvwH7m9/BgZZ16Bk8plVEIt1ZzQ5UFS7ApJKlqC1aArstNaLxpFQHjnRt3/mX3c9OcY/2h3VaLtZYACgSl3b5K8XEwY4PZh/s+ADZzsKma6Z/srkws3bOpUwodLq8zBrkZdZgZf2jGHS343DrezjcuhFNXdvjaoEVovFwOrIxqXgZJpUsQUXeXE3mlggEfYe2Na7t3Hjw5blBGVipQUyihMAjAAnAZkoaXlD7kZ1zK6/JsZhsdVqM6Q96cLR9C460bcLRzi0Jfz83TUwmkxWlOTNQVbgAVQULkJ9ZAy1etqSU3t7hlm1v7ft52vGe/dMjT6oPHgGgSLAAJJjirNoDl0+5rzcvrWKWoijhn+j8G/3DrTjWsQVH2zejqWv7hL4djOKZQE56BSrz56G6aAHKcmfDYk7SbPRA0HdoT8u7He8eelG3yXu0xAJAkeApgATT2nd48s83PAGzsHrmVl+7cU7lNfZka3q9iPCm+ExnMTKdxZhbexukVNHRdxBN3TtOLd7i9SXG2gSUaATyMqpQljcb5XmzUJZbr/nskKqq9rT07d+37sDzBZ2DxyYBGPdCXUQTGY8ATAApSRndi2tvOzC1eEmBxWyr1X4PEt0Dx3C8eweOd+1Ea+8euEa6tN8NTXhmkw2FWXUozp6GktyZKMudCbtN+0XzpJQj/Z6uXZsPvWra0/bubEg5vuX8EgyPAFAkWAAmmNKsyUOX1d6aVJQ5yWo2Re81z+3tQ1vfPrT27ENb7z609x2ALzAStf1RYspwFqE4eyqKc6ajOHsa8jNqLnnq3Usx5OmT+1o2uDc1/N4aVEdtUdtRnGABoEjwFMAE09x3ILX5/bFZAStyZ2B+1Y0ozqyFWeOV+FLsWWNXYxcvAzA2E13fUDM6+g+js//Q2OeBw/D6XJrul+KTEAqyUkvHVoDMOrEKZEZtDGZilBge7cfh9g+x6fAr8PiHBABjTP9IFCEWgAmssXs3Grt3AwCKs2oxp+I6lOVMgd2i/eujEAqy08qRnVaO6RVXn3p+aKQbHQOH0DXQgJ7BJvS4jqF3qBmhkF/zDBQbTkc2ctIqkZteiZz0SuSmVSIvowoWsz0m+1elir7hNhxo3YRtTWvhD47GZL9EEw0LgEG09h1Ga99hAEByUjrmVlyLSYXzke7IjeqiOqnJuUhNzsWk4qWnnpNSxcBwG3qGGtE9eAx9rrHFaPqGWuAZHYhaFho/k8mKTGcRMlNKxhZiSi1BblolctIrdFlfwRfwoGPwGHY3r8OBtk0x3z/RRMQCYEAjo4NYf+B5rD/wPACgpmAuphUvQ3FWDRzWVET70hAhFGSeeFM5eQrhJF9g5MRytC3oH2rBgLsdLncXBj0dGBrpQpBHDjSTbM9EenI+0pMLkJZSgPSUAmQ5x1ZdTEvO03W1RVUNoW+kHQ3tW7Hj+JtwsxgSaY4FgNDQsRUNHVsBAGazFTNKV6KuYD5yU0ths4Q1AWHYbJbksXPIWee6U0tixDsA10gnBj2dGBrpwrC3D25v39iqd6Njq+AZ/ZZFk2JBij0TKfbssZUS7dlIcWTBac9BanLu2Bt+cr7m14VEQlVVuLw9aO7dj72t69Da16B3JKIJjwWAzhAM+rH92FpsP7YWAGA1J2FK8RLU5s9FXno5HFYn9Lt5RCDZnolkeyYKcf7F2UIhP9zefnh8g/D4XX9dPc/ngsc3BK9vEF7f8Gmr7Y3A5/fAHxiBKkMx/O+5MIs5CTZL8lkfdlsqHLb0U58dSWlwWNNht6WNPbalId5v8AmpQbg8PTjeuw97W9ajfeCo3pGIDIcFgC7IHxzFzqY3sbPpTQCAoiiozp+Dmrw5KMyoRqo9B9G83TAcJpMVaSn5SEvJv+RtA8FR+AMeBEKjZ6zYFzhtBb+Q6v/rCn9qCFKqkFDHnlNDkAAUoUCc+Bh7bPrrZ8UEs8kKi8kGs2KF2WyD2WQ79ZzFbIPNkqLrIXhtSXgDw+hxtaGpew/2t70Hl7dX71BEhscCQJdEVVUcbv8Qh9s/PPWcw5aGycWLUJE9A9mpxUixpcMUxXu9o8liTtJ06lnjkRgNejDo7kL7wBEc7d6BY117AHC5Y6J4k5iv0hRXPD4Xth39M7Yd/fOp5+xWJ2oK56I8aypy08rhTMqE1WxDvB+apvFT1RA8gWEMjnShvb8BDV3b0Np3SO9YRDROLAAUFV7/MHY3vYPdTe+c8XxBRiXKs2agIKMSWc5CpCRlwGJKghAsBvEqpAYxGhjB4Eg3uoeOo6XvABq7d2OUMz8SJTQWAIqpjoFj6Bg4dtbzaY5clGZPRn5aBbKcxUhz5MBhdcJisk6gc+HxSiKkhuALeuD29qN/pBPdg8fRMnAQ7QNHoKrxc2EkEWmHBYDigsvTjT3N3diD9Wf9WZLFgfyMKuQ5K5DlLER6cg5SkjJht6bAYrJBUUwQPLVwXqpUEQz54Q+NwuNzweXpxYC7A93DzegYOIp+d4feEYlIBywAFPdGAx40de9BU/ee835PksWB7NRiZDuLke7IO3EEIQ1J1mTYLA5YzTaYhRUmxQJFEUjkaxGkVE+9qQdUP3wBD3yBEXh8wxjxueAa6UbfSDt6hlsx4O4EIPWOTERxiAWAJoTRgOeM6Y4vRlHMSEnKRIotFclJ6Ui2pcJuSYPDmgybJQUWs23sNj2TBWbFDLNprDyYFDMUxQwBceI2P3HiMQCIU9cySCkBSEgJSMgTX6tQpYSUKkJqEKFQAEE1gJDqRzAUPHWroT/ohdc/DK9/BCOBIXhGB+D2DcHt7cNowBOtv0IiMhgWADIkVQ1iyNONIU+33lGIiHTBq6uIiIgMiAWAiIjIgFgAiIiIDIgFgIiIyIBYAIiIiAyIBYCIiMiAWACIiIgMiAWAiIjIgFgAiIiIDIgFgIiIyIBYAIiIiAyIBYCIiMiAWACIiIgMiAWAiIjIgFgAiIiIDIgFgIiIyIBYAIiIiAyIBYCIiMiAWACIiIgMiAWAiIjIgFgAiIiIDIgFgIiIyIAMUwAERIPeGYiItCQghN4ZKHEZpgAA6NM7ABGRpgRcekegxGWcAiD5g0JEE4zK1zUKn3EKgEC/3hGIiLQk+bpGETBOAZA4qHcEIiItCauVr2sUNsMUACnU3XpnICLSigRa/+nGXw/onYMSl2EKAGDZo3cCIiKtpNozuvXOQInNMAXgy7f8ZiTVnql3DCIiTUwqXJiidwZKbIYpAEDwjqq82XqHICLSxLTiZfyNhiJinAIgsbQqb5beKYiIIpbmyEauszRd7xyU2AxTAKRUZ5RlT0OSJVnvKEREEZlUsABCEWZVVQv1zkKJyzAFQAhRYDZZML1kud5RiIgiIFBffuWJxypf0ChshikAUJEEALMqrgLA6bOJKDFV5MxARnLe2BdBtUDfNJTIjFMAAAsAZCTnoSq3Xu8sRERhmVN59anHwiRzdYxCCc44BUBI08mHS+vuAI8CEFGiKcqsxekXM3tGR8p0jEMJzjgFAIp68lFeegUmFy7QMwwR0SVbMfljZ3zd527J0ykKTQAGKgAyePpXyybfDZNi1isMEdElqc6bjeKsSWc8NxocHdYpDk0AhikAvoDXdvrX6cm5WFTzEb3iEBGNm9Vsx1UzHjzreW/QxQJAYTNMAfCHvGed9F9Uewty03gKjYji24opH0OqPeus5zv6jrbrEIcmCMMUgL7hDvm3zynChBvqH4eimM61CRGR7kqzpmJW+RXn+BOJHU1vNcY8EE0YhjkJ3tHfgIrcaWc9n5tWhpVT7sFbe3+hQyoiijVFmGC3psBuTYXd6oTdmgKr2Q6TYobJZIFJmGEymce+FhZAACE1eOIjcNrjIALBUYwG3PD4hjHqH4bHP4yQGtAsa7ItDTfO+Tuc664lf2AUEvKsX2yIxsswBeBw73b1Mtx6zl/151Zeh46Bo9jftinWsYhIQ4piQqo9G2mOXKQ5cpDuyEOaIwepjhykJGXAbkuFzWyPaoZAyAevfxgjo4NweXpOfHSd+NwNl6cbwdDFS4IiTLhl7v8HZ1LGOf/c5e3ROjoZjGEKQGf/EYTU4Hmv/L+2/hH0DLeiZ6g5xsmI6FIJIZCenI/c1DLkpJYiJ23sc7ojF0Loe2bTYrLBYrch1Z6Ngozqc3yHxLC3Hz1DzegeOo6eoWb0uI6jz90GVQ2d+q6VU+9BSdbk8+7ncMfWKKQnIzFMAQCA7qHjKEivOuefWUw23LHgH/DLDV/H8OhAjJMR0YWk2rNQlFWH4sw65GdUISe1FBaT7eIbxiUBpz0LTnsWKk+b1CekBtHvbkfn4FEoQsHUosUAzn+Ef+ux12OQlSYyQxWAfW0bz1sAgLEXmTsXfRW/2rgao353DJMR0V8J5KaVofjEG35RVt05r4CfaEyKeexoRmrpmX8gVQASY6f7xwqBx+/CaGAk5hlpYjFUAdjR+AYun/xxKMr5DxFmO4vw0QX/iOc3fQuBkC+G6YiMy251oiJ3JirzZqEidyYctjS9I8WPk6c0Tl4HKFV0u1qRas/CoKdXt1iU+AwzIf63f3d7UECY7ljwD2fMpX0+Lb0H8NKW78Ef9MYgHZHx5KVXoiZ/Liry6lGQXg0hDPNypBmvf7gjyZLyGwCvCSHeFUKELroR0QmG+Yk7WQAykvPx6BVPjWubjoGjePGDf+OhNiKN5KaVY3LRZagrugzpyZzGXktSyi4ALwN4UQixQQihXmwbMjbDFQAAeGjld5DjLBnXdj1DzXj+/W/D43NFNR/RRJXtLMHk4rE3/cyUQr3jGIKUsh1jZeAFRVE26p2H4pMhC0B2agkeXvFvGO9//uBIN17a8u/oG+asm0TjYTUnYXLRYswsv/I8t8JRrEgpGwD8L4BnFUXp1jsPxQ9DFgAAuGfxExe8x/Zv+QIevLr1v9DYsysq+YgmgoKMaswsuwKTi5fAak7SOw6dRkoZAPB7AD8RQrzBUwRk2ALgTMrAp6764SVdeCSlirf2/gLbGtdGJSNRIjIpFkwtWYo5ldchN61c7zg0DlLK40KIHwH4kRBiUO88pA/DFgAAWDzpdiyZdPslj7W/bRPW7vop7xAgQ7NbnZhVcTVmV16HZN62l5CklG4APxNC/IcQoknvPBRbhi4AAPDYlU8j3ZF7yeMNuDvxyrYfoNt1XJN8RIkiIzkf86pvxLTSFQk8Gx+dTkoZEkL8Vkr5XUVRPtQ7D8WG4QtAWnIuHr38KShhzB8eDAXw9r5fYkfTG5pkJIpnWc4iLK67E3WFi3jP/gQmpXxHCPF1IcR7emeh6DLMT/H5CgAATCtdhhvqHw977KaePXh9548x5O0LewyieJWRnI/FdR/FlOKlfOM3ECnlXwA8oSjKFr2zUHQY5qf5QgUAAG6ofxzTSpeFPb4v6MU7e3+JXc3vhD0GUTxJdeRg8aQ7MK10OZTz/+jQBCelfA3A1xVF2aF3FtIWC8BpHl7578h2Fke0n8ae3Xhj9xoMjHRFNA6RXpIsyVhcdydmVVx93uWzyViklBLA/wH4R0VReOHTBMECcBqTYsHjV/0AKbb0iPYVUgP4oOEP+ODIqwiGAhGNRRQrQiiYVXE1ltTdCbvVqXccikNSylEA3wfwbUVROEd6gmMB+Bs2iwOfuvIHsFmSI96ny9ODN/Y8h6Nd2yMeiyiaynNm4PLp95+9FC3ROZyYavgrQohfCiGk3nkoPCwA5+C0Z+KRld+HxazNLU6NPbuxbv9veMsgxZ00Rw6umP4gagrm6R2FEpCUcrMQ4tNCiG16Z6FLxwJwHk57Nj654juwWuya7F9KiX1t72HDgRd5twDpTgiBuZU3YOmUu3kvP0VEShkC8AMhxBNCCI/eeWj8WAAuwGFLxScv/x7slhTNcgRDAWxrXIvNR/4Ar39Ys3GJxisntRTXzfoUF+khTUkpGwE8pigKJ0ZJECwAF2GzOPDJy7+LFFuGpnkCIR+2N76BLUf/yKWGKSZMigWLJ92BBTW3QFF4Wx9FzXNSyi8oitKvdxC6MBaAcRDChI8vWYXCKPzGFAj5sKPpTWw58hpGWAQoSvLSKnDT3M8hy1mkdxQyACllN4CHFUV5Te8sdH4sAJfg2pmPYGbZSq0inSEYCmBf6wZ8eOxP6Btuj8o+yIgEFtTcjKWT7+Y9/RRzUsr/AfBFRVG4clocYgG4RLMqrsJV0x6I4pSoEke7dmLLkT+iuW9/lPZBRuC0Z+GG2Z9BWc40vaOQgUkpDwgh7hFC7NQ7C52JBSAMWc5i3LvkCdgt0Z0spcvVhB2Nb2B/2yYEQr6o7osmlkmFC3Ft/WNIsmp3AStRuKSUfgBfE0J8n/MGxA8WgDAJoeCjC/4RFbkztBryvHwBD/a2bsDOpjfRO9wW9f1R4lIUE66c/iBmVVyjdxSis0gpXxdC3CuEGNA7C7EARKy+/ApcOe0BmGJ0VXVL3wHsPr4Ohzq28KgAnSElKQMfmf8lFGXW6h2F6LyklMcA3KYoyi69sxgdC4AG7FYn7lr0T8hLK4/G8OfkD47iUMcW7G1+F819BwDwqJqRlWRNwS3zv4BkW5reUYguSkrpBfCooii/1DuLkbEAaGh2xTW4YurHY36PtcvTi32t7+JA2/s8RWBAc6tuwMpp93HJXko4UsofCiG+IITgqmk6YAHQmN2Sglvnfx4lWZOjvatz6hlqwcH2zTjY/j763R26ZKDYMClmXDvrcUwrWa53FKKwSSnfBXArJw6KPRaAKCnLmYpb5nwWdmtqrHZ5lm7XcRzs2IwjndvQM9SiWw7Sns2SjNsW/ANKs6fqHYUoYlLKwwCuVxTlqN5ZjIQFIKoEVky+G/Oqrtd96lWXpwcNndvQ0LENrf0HocqQrnkofGmOHHx00dc4qx9NKFLKHgA3K4rygd5ZjIIFIAYs5iTcOOtTqMmfG8UJhMbPFxjB0e5daOzahabevXCP8o6cRFGQUY3bF36FF/vRhCSlHAVwn6IoL+mdxQj0fzeKET0LwElOezZumftZFGXU6BnjLD1DLWjs2YXG7j1o7T+IYIjX48Sj6vy5uGXe52E2WfWOQhQ1UkoJ4EuKojyld5aJjgVAB/npFbiu/lHkppbpHeUswZAfbQMNaO49gJa+A2gfOIKQykKgtynFS3DDnM/wSn8yDCnlvyiK8nW9c0xkLAA6yksrw3X1j8V0/oBLFQwF0DFwBM19+9HSdwgdg0fhD3Jdj1iaUXY5rq1/PC5OHxHFkpTyKUVRvqh3jonKMK8o8VgATspNLcN19Y8gP70C8f6/REqJ3uEWtA0cQXt/A9oHG9A33AFORBQdc6qux5XTH0C8/7sgihYp5TNCiL8TQqh6Z5loDPOqEs8F4CSnPRNXT38IlXn1UISid5xx8wVG0OE6hq7BJnQNNqJrqAn97i6wFERmYe2tWD7lHr1jEOlOSvlLIcQDQgjevqQhFoA4ZDZZsXLKPZheshwWs03vOGHxB73odh1Hl6sJ3UPN6HW3oXeolacPxumySbdj6eS79Y5BFDeklC+cWFaYRwI0wgIQ1wSmly7DoppbkJGcr3cYTQx5+9A73ILe4Vb0DrWib6QDA+5OeP3DekeLG/OqbsTl0+/XOwZR3JFSrhFCPMwlhbXBApAg0pJzcfmUj6Mqrx4mxax3HM2NBkbQ7+7AwEjn2Ie7EwOeLrg8vfD4XHrHi5n68qtwTf2jescgiltSyh8qivJZvXNMBCwACUdgVsUVmFtxLTJTCmCE/4XBkB9D3j64vD0Y8vTC5enFkLcX7tEBuH0DcI8Owhfw6B0zYlNLluGG2Z/h1f5EF/cdIcRX9A6R6AzzSjNxCsBf2S0pWDzpdkwpXqTrmgPxIBDyYWTUBfdoP9y+QYz4XPD63fD6h+H1DcHrH4EnMDT2td+NYMivd+Qz1BYuwEfmfQEigS7+JNKTlPIJRVGe1DtHImMBmCDy0sqwqOZWVORMh9Vi1ztO3FPVEHxBD3wBL/xBL3xBz4nPo/AHRxEM+cc+1MCpz6GQH4GQHyE1CClVSKlClSok5F8fSxVSAkIIKEKBOPGhCHHiswJFmGBSLDCbLDCbrMhKKcaM8iv45k90iaSUjyqK8hO9cyQqFoAJqCCjEotqbkVZ9lRYzUl6x6ELEsAEvKaDKBaklEEANyqKslbvLImIBWCCK8ysxrzK61GWMxV2i1PvOPS3FDMM9GNIpDkp5TCAJYqi7NY7S6IxzCuPUQvA6Zz2TMyvvB41hfOQZs+Ggf73xye++RNpQkrZCmCBoijtemdJJIZ59WEBOJNJsWBa6RJMKVyM/LQKXjcQa8IE8Jw/kWaklDuFEEuFEG69syQKFgACAKTZszGr/CpUF8xGuiMfJoV/VVHDN3+iqJBSviKEuI0TBY0PCwCdU15aOWaULEdp7jRkOPIm5ORDuhAK+M+QKHqklF9VFOXbeudIBHxVp3PqcjXhDVfTqa+zU0swo2QZSrImIzO5gKcMwiL45k8UfU+qqrpVUZQ39A4S73gEgMJiMdtQV7gAVXmzUZBeiRRbBhSeNrgwXvRHFBNSyj4AcxRFOa53lnhmmFcjFoDoc9ozUVs4H2WZU5CTVgqnLQMmk0XvWPGB5/2JYm0bgCVCiFG9g8QrFgCKKrslBZX5M1GcORm5qaVIT85BktkJRTHQmyHP+xPpQkr5Y0VRHtM7R7xiASBdJCdloCp3JgrSq5DtLEKqIwd2ixMWswUT658lZ/oj0tmtQohX9A4RjybSK+0FsQAkCoGc1BIUZ9UhP7UM6cl5cNozYbc6YTUlJd51BjzvT6SrE9cDTFcUpUPvLPGGv5pQnJHoGWpGz1DzOf9UUUzIdZYgP6MKGY48pDlykJKUAYctDUlWByxKEkyKOT6W1BUm8M2fSF9CiCwp5XNSyms4P8CZWAAooahqCJ2uJnSedoviuZgUC9KT85CRnINURw6ctgykJGUi2ZaGJGsKrOYkWEy2sRX5hAWKYoaimCCEgNDiTVsIXvRHFCeEEFdJKT8P4Cm9s8QTFgCakEJqAH3Dregbbg1re7Nihc2ajCSLAzazDTaLA1azA1azHVZzEoQ0QVHGlvZVhAmKYoJyYglgizkJ08qugNXMHy+iOPKvqqq+yUWD/oqvUETnEFT9CI76MTI6cMnb3jjns1yGmSjOCCFsAH4mpVwghAjpnSce8BglkYYqcusxtWSZ3jGI6NzmnDgVQGABINKMxWTDtfWP6h2DiC5stZSyUu8Q8YAFgEgjy6bcg1RHjt4xiOgChBAOKeWP9c4RD1gAiDRQmFGDOZXX6R2DiMZBCHGFqqoP6p1DbywARBESQsG1sx6Lj7kHiGi8vqeqapbeIfTEAkAUofryK5GTWqZ3DCK6BEKITADf1DuHnlgAiCKQZEnG0sl36x2DiMLzmKqq0/QOoRcWAKIILK67E3arU+8YRBQGIYQJwNN659ALCwBRmLKcRZhdeY3eMYgoAicuCLxF7xx6YAEgCtPl0+6HwgUmiSaC70kprXqHiDUWAKIwlOfMQGXeLL1jEJEGhBDVUspP650j1lgAiMKwdPJdekcgIm19RVXVZL1DxBILANElqsqbjcLMWr1jEJGGhBC5AD6jd45YYgEgukRL+Ns/0UT1D6qqGua2HhYAoktQUzAf+elcR4RoIhJCZAH4e71zxAoLANG4CZ77J5r4viClTNc7RCywABCNU23BPOSkluodg4iiSAiRLqX8nN45YoEFgGic5tfcrHcEIoqNT0spk/QOEW0sAETjUJRZi6LMSXrHIKIYEELkAPiE3jmijQWAaBzmV/O3fyIjkVJ+QUo5odf4ZgEguoj05DzUFMzXOwYRxZAQYpKU8ia9c0STYQqAkBjROwMlpnlVN0KICf2LABGd25f0DhBNhikAEGjQOwIlHpvFgellK/WOQUQ6EEIsVVV1tt45osU4BQBw6R2AEs+U4qWwmGx6xyAi/Tyqd4BoMUwBkFIM6Z2BEk99+euru8EAACAASURBVJV6RyAifX1soi4SZJgCIATa9M5AiSU/vQq5aeV6xyAiHQkhUgHcqXeOaDBMAVCl3Kt3BkosM/nbPxGNeUTvANFgmAKgCOzWOwMlDqs5CVOKF+sdg4jigBBikaqqU/XOoTXDFAAhAnuEMMx/LkWorugyWM12vWMQUfz4pN4BtGaYd8R/vOXV5KLMWr1jUIKYUrxU7whEFF/uklJOqPfMCfUfcyFSBm6pyqvXOwYlAIctDaXZU/SOQURxRAhRIKWcUL8ZGKYAIIRl1Xlz9E5BCWBS4ULwdBERncNdegfQkmFe5aRQp2c7i5CfXql3FIpzk4su0zsCEcWn26WUJr1DaMUwBQBQsgFgdsVVegehOJaSlIHirMl6xyCiOCSEyJVSrtA7h1YMUwCEkEkAMLlwEZKsKXrHoTg1dvifC/8Q0XlNmEmBDFMAIGEDALPJijkV1+idhuJUbSGX/SWiC/qIlHJC/JZgmAIgJU6dt5lfdT0ctlQ941AcsprtKM7k4X8iOj8hRC6ACbFCoGEKgBDwn3xsNdtxWc1H9IxDcagsZzoUZcJc30NEUSKlvE7vDFowTAEIyaA8/ev68iuR5SzUKw7FoUoN54n47dFfazYWEcUdFoBEMuJznXHM36SYcd3Mx3jBF51SmTdLk3FGQ6N4auc38W77m5qMR0RxZ4GUMkPvEJEyTAEYGuk567mizBrMrZwQRY4ilO0sRqo9W5Ox1hz4IQZ8/fiPnf+CkAxqMiYRxQ8hhElKebXeOSL1/7d33+FNlXscwL/vSdp0bzqhg1JWmWWDDBEQVEC2g+vEgcpV3MJFxa2IioqCylUvLmSUDSIgS0D2aIFCKaV77zZNmuS9f5QVmt0kJ2l+n+fxkSYn53ybB3J+ec97fq/LFAD5FRlc1+NDOk6lSwEEcaHWGf4/XLQfX5/+BABwvuIsfjj7tVX2SwhxOKPFDtBcLlMAZJalanQ9LpW4Y2KfFyCjld9cWhsr9P4/UXIYz+z+l9a3/i9PfYhz5SnN3jchxOEMETtAc7lMAZBRdAKc6xwEQJBPBO5MmgmA5gO4qqigDs16/fbsTXh0xyTUNFRrPa7UKPHc3kdQpaxo1v4JIY6FMdaWcx4udo7mcJkCABqOKnmJ3qcTwntjYHu6NdAVBflENKsvxPK0b/Dc3kdQr67X+Xx2TSae2/soVJoGi49BCHE8nPNbxM7QHK5TAABILzhq8PnBHaegW/Qw+4QhDiMqqKPFr12a+ik+OPofcOgeXbrqn8K9eP2f2RYfhxDikAaJHaA5XKoAOHRxs9FtRnefgYTw3nZIQxxF62DLCoCV6f/D5yffN3n7dZd+xycn3rboWIQQh0QFgLOokpegorbQ4DaMCRjXaxZiQhLtlIqIzZLr/ymlx/HukTlmv27ZmS/wU9q3Zr+OEOKQenLOvcQOYSmXKgAAYP+FZKPbSCVumNzvJbS10q1hxHF5uHmbfRuoXFWHl/Y/iQaN0vjGOnx4bB62Z2+y6LWEEMfBGJNyzp12yNjlCoDTWXvQoFIY3U4qccfEvs+jQwStDteStfKPgbl3f3x64h1kVV+y+JgarsEr+2citeyExfsghDiM7mIHsJTLFQAAcPDCBpO2kwhSjO/9b3RtM9TGiYhYQv1izNr+dOkx/Hrhv80+br26HrP2PIjS+qYdKgkhTqWb2AEs5ZIFwP4LyahX1Zq0LWMC7uj5BIZ2ugfUJ6DlaRwBMA0Hx7tH5kDDdfaUMlthXT7m0Z0BhDi7rmIHsJRLFgAAx18pP5v1iv4J4zCh72y4SWQ2ykTEYM4IwJbLyThdesyqx9+duw1/5/9l1X0SQuyqC+fcKb8dumgBAJzK2oXSmjyzXtM+vDem3/ImArxDbZSK2BdDiF8bk7ZUcxU+P/mBTVJ8dOx1qLnaJvsmhNgWY8ybcx4vdg5LuGwBAAArDrwPbuZwbqh/DB4a8h5NDmwBAr3DTB7RWX9pJbJrMm2SI70yDRsurbTJvgkhduGUlwFcugColpdi37nVZr9O5uaFu/s8h5FdH4JEcLNBMmIPwb6tTdqOg+O71M9tmmXx6Y+oVTAhzqv5q4mJwKULAKBxQmBRZaZFr02KG4UHBr+FVn7R1g1F7MLUSzm7c7chs/qiTbPk1eZgbcZvNj0GIcRm4sQOYAmXLwAAYPm+N6FoqLPotY2XBN7FwPYTIDCJdYMRm/L3CjNpu5/TvrNxkkbfnfmC5gIQ4pyoAHBWKrUSP//9lt7lgo0RBAkGd5yCfw1+C61MnFRGxOfv1croNjk1WThQsMcOaRpXDdyZs8UuxyKEWFWs2AEsQQXAFcVVWdhycilgZFU3Q8ID4vDQkPcwtPM9dLugEzDlEsC6SyuMrvRnTbROACFOqQ3n3OmGgKkAuMHprD3YdWZFs/YhCBL0bzcOM4YvpDsFHJyfl/ECYHPmGjskue5I0QFcqrpg12MSQpqHMeYGIErsHOaiAuAm/6Svx2ETlg02xs8zCHf3eQ5TB7yKEF+n+3vR4nm4+0Am9TS4TVp5qs0n/+mSTJMBCXE6nHOnmwdABYAOO1N/wqnLu6yyr7hW3fDIsA8xuvsM+HgEWmWfpPl8PYKNbrMzV5zr8ZsvJ9v1sgMhxCpMu6/YgVABoMeWk9/gyEXrnAAYE9A9Zjgev+0TDO44Be5GvnkS2/OS+RrdZl/eTjskaSq/NgcppcdFOTYhxGIhYgcwFxUABuxIXY6/05Kttj83iQwD20/AkyM+Q/924+Au9bDavol5PN0NFwC1DTU4XSrecr27cv8U7diEEItQAdDS7Etbie0pP1p8i6Aunu6+GNr5Hjw5YhH6J4ynEQERGCsATpYehZqr7JSmqf20QBAhzsb4dUUHQwWACY5m/IHfDrwDtca6JwRPd18M7TQNM0cswsD2E42elIj1GHuvrb3qn7lSy05CrrKsORUhxP4YY043AiAVO4CzyCo5i292zMZDw96Dp5t1T9Qe7j4Y3HEy+ieMRUr2Hhy+uBnltYVWPQbR5unuZ/D5c+Updkqim5qrkVJ6HH3CBomag7iG4rxLWLPkzWbtgzEGqZs7ZB7e8PINgF9QKwSFtUFYm3YIi06ARGLZ6Sbr/En88cuiZmVrDAhIJFJI3T3g4eUDH79A+AeHIyQyDm0SusLLx79Zu+ecO90IgFOuYWyJ95MnqRia36tXIrjhngGvoXVwR2vE0olzjguFR3H44ibklKbZ7Diu7K5es5DYZoje58dvGoz0SnHf+5eT5uPBjjNFzUBcg0ajhkJeC41GjbLCHBzbtQ4ZqYettn83dw/EdkpCl34jENsxCWCmn3o0GjWU8jrU11WjKPcSjuxcjcJs696eywQBbRP7YtCY+xAcEWPRPjjnpwRB6G7VYDZGBYCF+rUbh6GdpoIx215FKa7KwvHM7UjN+RtKldymx3Ilk/u/ivjwXnqf77UiGvXqejsmampy/HTM7/eJqBmI61q/7F1cTDlkcJuxj7yG8Oj2UCnrIa+tQlVZEQqyLuDCqQOoLi/W+ZqQiBgMGfcwYjr2tCiXqkGJ5QueRUVxnt5tgkJbY9q/P4BKpYS8tgqVpYXIzzyHc0d3o6ayTO/rBIkEg8c+hKSh48zOxTnPEgTBsupBJE7XutBSI+7p/DqD9c7WuWVpuFB4FJ2i+kMqcbfWbpvwlvkjPqwnesXdDn+vEFTXl6FWUWmz47mKrtG3IsBb92JA5YoyfJP6mZ0TNeXj7oe7204TOwZxURqNGumnDxrcpvvAMQiJjIGHty98A0IQEhGD2I5J6DH4Tnj5+CMn/TQ0Gu0FrupqKnH26C5UlhYgpkNPSKTmXRoQJBJUlxUhP1P/CJ2XbwB63Xo33D284O0biKCw1ojp0AM9brkTnHPkZpzR+TrOOS6fOw5BIkXr+ESzcgGonz9//sfmvkhMNAmwGYoqL+PzrU8iLd9wlWwN7lIP9Ii5DQ8PfR8PDnkXSXGjaNJgMxi6HllWr/ubi70V1eWLHYG4MC+fAItfKwgS9Bh8J6Y8/S5kHl46tzl7ZBd+W/SywW/k+nj7W3a5XSJ1w6A7p+OWux4wuN3+LT8j+8Ipc3fvdAvAUAHQTJxrsPbwZ/ht/zsWLylsrvCAOIzs+hCeHrUYE/o+j4TwXhAElxnMsQoJ018A1DTU2DGJfqWKErEjEBcmdWv+yGZ4THvc+eDLeq/5l+RfxsrFcyGvMW9U0829eT1U+gyfiNCotvo34By7ks1eBtx2Q8E2QgWAlVwuOYPP/3gC5/MPozkrCppDIkjRPrw3JvZ9Ac+M+gq3d38UMSGJNp+X0BJIBP0FgFKjsGMS/eocpBAhLsqMiXqGxHTsiW4Dbtf7fEVxHjb88CG4RmPyPgWhmZ9xjKHLgJEGNynJv6z3UoEeNALgyjQaNZIPf4ofd89FlbzUrsf2dPdFj5jbcM/AuXhm1GKM6vYI2oR0ArPSP+KWRiJxEzuCUWquhoab/qFIiKMaOOY+g9/acy+m4vBO+668GR7dweg2WedPmrw/xpiEc+5U51SnCussCioz8fWfs/BX6i9Wbx5kCi+ZP3rGjsB9A+fh6VFfYXSPx9AuLMmmkxWdjaFLADIJtWgmxJo8ffzRuc+tBrf5Z9sK1FTa74uTt6/xOQ6Vpeb1Y+GcO9UoABUANnTo4kYs2voYzucftmorYXN4y/zRPfpWTOr3Iv49eikm9n0B3aKHwUvWvKYXzs7QnAlfN8NNguxFKrhBsNHlHHOGWwmxhk5GCgBVgxKHd9hvFICbMLpmwQiq4w8t3oA6AdpYg0qB5MOfws8zBON7z0JkYIJoWdwkMiSE90JCeC8AHIUVmbhUfBqXik4ht/y8KKMVYlHfdGvSjVp56r490N583HxM3raspBhbkldh0+rfoVQqsGrnfq3n62prsGHlb9i9bTMunk+DqqEBrcLC0W/wUNz7yBMIj9K9kmmDUontm9fjr62bcD41BdVVlfDx9UOXnr0w6f4HkdR/oMW/X0V5GXZu3oBD+/bg4vlzqCgrAweHf0AgYtrGo2ff/hhx53hEtG5j9r6NvR/lpSVI/nU59u34EzmXL4EJAmLbtsNtd47D3fdMh7vMsi9ypcVF+GN9Mo7s34vLF9NRWVEOMAb/gEDExieg98BBGHHneLQKC7do/zf/Dts3rcfh/XuRcT4NFeWNs+kDAoMQ07Ydevbtj5FjxyMsIqrZx7KGiOj28PTxNzjhL/XQdgy6czrcZbZfH6W2qtzoNkFh5q3wyxhTWppHDFQA2EmVvATL976ByMC2uCvpGQR6N/8DoHkYwgLiEBYQh/4J49CgViCr5AwuFZ1CVukZFFflwF6TGcWg1jTofc7HzRd+7gGoUlbYMVFTwR6hBp/nnOP4PwewYeWv+Puv7VCrG4uawGDtluR7d2zDZ++8gYoy7eHV4sICbFy1Ats3rcfcDz7BwGG3aT2fcvwo3p/7Egpyc7Qer6muwsE9f+Hgnr8w7aEZeHz2y2b9XvVyOf635Aus/fUnKBT18PL2RofErmjfuQvycrKQlXERFWWlOHnkEH5c8iVG3jUeTzz/CgICg6zyfmxY+Su++fQj1NXWXn9QrUZ62lmkp53FX1s3YcE3P8DH1/SRIJVKhR+/WoSVy79Hg1KJLj2S8PjslxEWGYmSokJsXbsaxw8dxInDB/HD4kUYN+1+dO2poxEVY+jUpRtahUfoPVZdbQ1++OpzrP/9FzQolfD28UWHxC5wl3kg5/Il5FzORHlpCU4cPogfv/4Co++eiMefexm+/iKP+jGG1vGJuHByv95NGhT1uHj6IDr1NjxaYA25lwxP8GOMIaG72QUuFQBEv7zyDHyz43lEh3TC6O6POUAh0MhNIkN8WE/EhzV255Irq5Fdeg5ZpWeRXXoWRZVZaEkFgcbIaEecXzxOlhy1UxrdIrx0f3Orqa7CptW/Y9PqFcjNumxwH7/+dym+W7TQ4Db1cjnefvk5fP3rGsTGN45Qbd+0Dgtefw0qleH3acUP3yGmbTvcPn6iwe2uys3KxJxnHkfO5UzIZB546qU5GDvlXq1v3BfTzuHz995Eyolj4BoNtq1PxtEDf+PtRUvQIbFLk32a+n6oVCosfHMOtm1YazDj+TMp+OSteXh9gWn95+V1dZg763GcPNLYD2TifQ/gqZfnag0fj7hzPH746nMsX/olVCoV1vz8I9b8/KPO/Y2dci+e+898nc9dzkjH3FlPID8nGx6enpj52hu4c9JUSN2ujzyfP5OCRe++iXMpp6DRqLF5zUocOfA33v18Kdq2Nz7xzZZaRbU1WAAAQEbqYZsXABq1Gqf2/2Fwm64DRiEgRH8hdjPOuUoQBKe6tkZzAETSuLjQ8/hl/1soq3G8hi+e7r5oH9EHI7o8gIeHvo9nRy/FpH4von/CeEQHd4abxKnmujShMlIAtA8wuwuY1cX46r5Puby0FGdOHsfouydj1Ni79b7++8WfYdnnn2DoqDFYsPQHJO8+hOTdh/D2oq8R3TZea1ulQoFlnze2Hf5j3Rp8MPdl+AUE4oEnZ+GL/63Az5t3YvHPqzDx/gfBbroF69tFH0OpMH7rZEFuDp57+H7kXM6EIEjwzudLMGn6Q02G2+M7dMTCZT9pjUiUFhfhxccewIWzqXrfjzETJmPkXbrfD7Vajbde/De2bViLTl2749m5b+KL5b/jq19W4+mX58IvQHtC2O5tW5CWetro78Q1Gsx/Yda1k39Cp0Q89dIcndeOH3rq3+h7i/71JwBAIpEgOFT3yE/O5UzMfvh+5OdkQyqV4oOvlmH8PfdrnfwBoH3nLvjs+1/QZ9D1YxXl5+H5GdORefGC0d/JloJCjV+OMPPWO4vsWf9fg62EI2I7Yuj4R83drVN9+wdoBEB02SXn8O3OFxAZGI+RXR9BeEAsHHGJBg93H7QLS0K7sCQAjRNoiquykVt+AXnl6SiouIjSmnyTJtY4AmMjAF2Ce2Bl+v/slEa3hADdC061iY3D/E8XX/s5LycbKce1Ryu+XfQx9u/agS+W/45OXbXXJxk47DZ0TeqNmfdORH5O9rXHD+7ZhT/WrcHHb87FXZPvwRPPvwJPr+td3MKjWqNjl25oHROLz9+7/g21vLQE+3fvwLBRd+j9XVQNDXhj9tMoK2nssjhu2r0G5w9IpVLMeX8hnpg2/tq3+rraGsx7dia+XblBazj75vcjP7fp+/HxG6/h1LHDmLfgsyY5OyR2RWKPXnh6+mStyZGb16xEh8SuejMCwLoVv+Dw/r3Xfh4/7b4mBdKNHnv2JRzat+f67+nmhiW/JSOuXXuDx1Eo6jHvuZmNcwoATPrXw+ia1Fvv9m7u7pj30ad4bPI4FObnAgCqKysx79mZWLpiHby8vQ0ez1Z8A4yvmFtbVQ55TSU8m7k6ny5KhRy71y5DysE/dT7PGEO3gaMxZPwjljRCcowGImagEQAHkVd+ET/umYuv/vw30guOO/yJlDEBof4x6Bk7Anf2fBKP3roAs+9Yhum3zMeobg+jW/QwhPnHGmy4IyaVgTkAANCrVX87JdGvc5BpC4sl9kjS+rm8tASZF87j61/WNDn5X+Xr54/7H9NeaVCjUeOTt+fhxTffxXP/ma918r/RuCn3IiRUe6JkyjHDl0t++/5bpKedBdC48tq0B2cY3B4APL28MOu117UeKy4swFcL3jX4uq49tU+M5aUlSD15HF//skZvkdIhsQv6Dhqs9djNRcTNVCoVfvnua+1jJ/Ux+Jq27TsgodP10SVVQwOWL11s4BWNflq6GFkZjSvgSaVSTH3gEaOv8fbxxVMvz9F6LC87C98tEq9dvaePafMqzL39TheVSon62mqUFmTj4umD2L12Gf77zhM6T/5SN3d07jMc019ahOGTn7S0C6LTFQCO+enswqrlpVh9aAGkEnfc2uleJLYZApmb7WfEWoObRIaooAREBV2/00GtUaGsJh8l1Tkors5GSVUOSmpyUFFbKNqtkY25DBcAcX7tEO4VhYK6XDsl0uYp9ULHQNMuQ9w8Oc7L2xtvfvIl3NwNf4j1GTi4yWOPPfui0ev5TBDQuVsP7Nl+/RrqjSMJN6uqqMCKH7699nPnbj0QGhFp8Bg3ZuzUtTvOnr7ekOXPjesw9cEZiEvQ/a355sluMpkHFn633OjM+x59+uOfvbuv/WzodwKA08eOoLREe92IMBN+r+69+2pdyjiweydUDQ1NhvKvKispxuqfrs8X6NGnPwKCTOuFf8vwkWjbvgMyzl9fOGfDyt8w+V8PI7JNtEn7sCZ3PesC3ExeW9Ws45QWZOGLl6YY3c4vKBT9R01DQo9B1rjzgAoAYh0qtRJ/pvyIP1N+RPvIvhjcYTJCfKPgiJcHDJEIUrTya4NWfm3QCQOuPa5SN6CsJg+lNXkor81HWU0BymsLUFZbgHql7VvgmnKMoVEjsOKC7olattY7dIDBZkU3knloNy6SurkZPfkDQEhoGNzc3dGgvH7p0tvHtFsPbz6BV1Xpv7Vr05oVWjPuu9w0YmHMHROnahUAnHMk//o/PP/6Ozq3l8m03w+Zp4dJt91FtdFeyVWhqIdCUd9kf1edP5PS5DFT3vfY+HZaPysVCmRnXtJb0Kxf8QsUiutLU3fubt4yumMmTMHiD6+/VxqNGutW/IyZL75m1n6swdAiXDdqUNpnKe6qsiLsWPk1zh3bg3bd+qNDj8Hw8LZ4kTXzVzUSGRUATuB83iGczzsEb49A3Nr5PrQP7w03qXNPwpNK3BDqH4NQ/6bLZ9cra1BWW4CKuiJU1RWjsq4YlXWlqKovRmVdCVTq5s+1kZtQAIxqM060AuCWiOEmb+vWjEVbvL19UKG8/rllbNb/VZ6e2t/kDE0C3LY+Wevn1jFxZiQEBg4bjk/eYlojRnu2/4HZ/3lL5/V2qZtlH2u6bpNTKhR6C4DqyqZFj6Fv8lfdfFsiAFRW6D93/LHhpvcv2rwl52+5dYRWAQA0TnIUowAwVXPXMwkOj8a/XloEtUYFRV0taipKUJJ/GZfTjiP91EGo1df/nqvVKmSdP4ms8yexe+1/0TFpCPqPvgd+gYZvw9XBvv3frYAKACdSW1+Ojccarxe2C++JAQkTEBEQ3+L6/Xu4+yDSvR0iA9vpfL5OUYkqeSlqFBWolpehVlGBGnk5ahQVqKlv/H+dosrgPAq5stpojr5hgxDmFYnCOv2zhW1leOsxJm/bnIVRDE1YM+d1+t7rvOwsZF3K0HrMPzDQrGMFBAWjTWyc1n6qKytxKf2CntvaLPv3oOvErTHQMVHm2bQwKC8tMXgPP6C7YHN3113QZ5xPQ1G+9t8/PzPfv9CISIRFRF2bDAg0zqUoyM3R2wDKVm488Rpi6qUCQ5ggQCq4Q+rnDm+/QIRFJyCx3whUlRfhj18WISe96QiOWtWA1EM7kHZiH0ZMeQqdeg8z55BOt3wnFQBOKr3gONILjkMQJOjXdiy6xw2Hv2cwnO0SgSW8ZP4mtDLmqG+og1xRDbmyGvKGasiVNahTNv4/xNf4B5/ABEyKvx9fnV5gneAm6hachEhv0z+YHbkAvHHo/ip3E4bJb9Y2oWOTQiLr0kWdBUCzV4ozUUxcfJPHMjPSjRYA9XK51s+MMb2jImdOnWjymEXvX/sOWgUAAGRnZti9AGhQmDa07+NnXpFjDr/AUEx8cj6Sl85H9oVTOrdRKRXY+vOn0GjUSOx7m85tdKARAGJfGo0aB9LX4kD6Wni6+6J/u7Ho1HogfD0Md01r+Rg83Lzh4eaNQOi4/mviEOO0hAfxXeoiKDX2u8V3Qvy9djuWreVlN23Mo9GYP/kzvHXTE1VlufFWrraU1H8g3GUyrcsfxw7u1zm58kb5udqTCzt379mkD8FV1nr/InSc6MvL7H/JWl5rfOSNCQL8W5negMcSEokUY6Y/j+/fe9JgUbJj5deIjO2IQBP6FzDGnG4EgG4DbEHkymr8deYXfLXtGXy+9QkcubgFNfXlaEkd/KzGxDsQQjxCMb7tPTYOc52/eyDGxhqfvewsaqqbfuDX1Zo/yVNXG2Ax7yIBAB9fP4yZMFnrse2b1mtNqtTl1NHDWj/fN+NJvdvWVDedDV9XY8H7p+OuAY1a/3oYtlJTUWx0m5CIGEiltl+51NsvEN0G3G5wG7WqAQf/+M2k/XHOnW4EgAqAFkqurMaO1OVYvO1pfLblMew9twolNbmif2g6o8cTn4ObYJ+llKd3mAFPafOvfzoKXZcnSouLzN6Prp4EPn4Wz9a2mkeema01jF5WUoxfli3Vu3125iUc3PPXtZ9H3z0J/QcP07u9rvevpNj8e+R1v3/2X/WyosR419OYDj3skKRRh56GR2sAID3lH1PnLhivbhwMFQAuQNFQh/3n12DZzpewYOO/sPH418guPYsGldPdtmpFphdCkd6tcX8H441rmitAFogHOur/NuiM/AKaXsvNzrxk9n50zQqPiDJ/lUBr8/H1w0dLvtdasXD5N4uxJXllk20L83Px+nMzry1SNGTE7Zg9722D+9f1/hlb/0EXXZM9xXj/ivMyjW6T0H2Q7YNc0SqqrcGlwYHG+QDlhTkGt7kiyyqh7IjmALgYzjVIzd6L1OzG9qWB3uFIih2JtuE9EOgV1uzbb1qqmV1ewMZLq1BSb/63V1M90+1V+LiJ/63WmqLjmq5nYEqP/ZspldrFqlQqRbuOnSzOZU1R0TFYumItvvl0ATau+g1co8HHb87F1nVr0G/wMHh6eSHj/Dns3LIR9XI5/AMC8eDMf2PctPuMTuCMadt0oqFF799Nt2nKPDwRE6/7Lhtbyrt01uDzraLiEB5tvyXTBYkEHt6+qKs2vPKnvM743AUAmdbIZE9UALi48toC7Ehdjh2pywEwtAvvgcTWgxEV1B4+soAWXhBwmHrXhI+bL+b0fg/P77PNSEBiUA9MbfeATfYtTZ81MwAAHtFJREFUpsTuPcGY9j386WlnUV1ZadbytNWV2h/Q3Xr1gczDcTpkCoIERQV5CG4ViqkPPooLZ88g5/IlbEleCcYEBAQFYfiYu5DUbyAG3nqb3t4CN+vSs2m//3MppyCvq9PbqlmXm3sW9OzbH1KpfT/+y4pyjLb47TPctFUlrcmUy6Jubob7rnDO6xljjreqmxFUAJAb8Gu3FzZiiA/vjs6Rt6B1cAf4egQ59C1nZuMcMOP3uT16HEZHj8fWrHVWjeEmuOOd/p9BwgwPRTqjwOAQJPZI0uqrzzUa7N2xDXdMNH2yY0Ge9i1st46+y2oZm6u6qhKvPPkwsjMvYfHPq3WOelgqPDIK7Tp2Rvq56yvkqRoasH/XDtx2x1iT91OQpz2EPXz0nVbLaKpzR3YZfD60dTzam3BN3ppUSoXxtsOMIaCV0RbPWYwxp5tg1ZK/3pFm47hYcAIbjn2Jr/+chY82TMfyvfNw5OIWFFZeglJln3adjuSNvgsQYcY9+qaY1e0VtA/obNV9OpJxU+9r8tjGVb+atY+Laeeu/dnXzx/DxzhGAaBUKPDaUzOQlpqCifc/aNWT/1VjpzS9LXTDSjPfv/PX37+AoGAMGTm62bnMoVIqcPrANr3PSyRSjLznGbt/wcjNOGP0jqDw6AR4eBltkW3+xBYHQAUAMQNHXvlF7Ehdjh92z8Wnmx/Bp5sfxZaT3yAt7x+U1xZYpU2v/ZhfsPu5B2DhoG+tdlfAwPCheLjT083ah6YZK0daeleIOa+7dfQdTZa7TUtN0VoW15DSkmKtE9i0h2fAw1P/8L+h7n0GWfBe/G/Jl9eaHUVFx1p2XCNGj5/YZOGe08eO4MThgya9vjA/99pKggBw/4wnTVqzwJqO/JWMuhr960UMn/wkQqNML56M/f0ztZBI+We70W2Shpg00pJp0gEdDBUApFmUKjlOXd6FtUcW4Zsdz2Phpofw2ZYZ2Hj8K6Rm70NJdQ6UDXI4Zi8CyzJ1D+mF//T5oNlHD/OKwIeDlkBo5jwLhVx7JMbYfeg3uvn2JlPXArj5dYbWAhAECWbPe6vJbOvFH72jtciNPutX/Ax+5aQeG5+AydMfNri9vK5W62dVg+GVH69S67gvXlmvP59CUY/kX/937efvFn2MDSt/Rfq5MyguyEd1ZSWUCsW17JaSurnhubnzm5zUvvzwHZN+t7W//nTtz+07d8H4e6abdFyNxnifAG7Cv6GCrAs49GfTuyIAAIxhyPiH0aX/SJMyXctm5LY8wYRFh3IzzuD8yb8NbhPbMcmkWwUBZBjfxPHQHABidYqGOqRm70Nq9r4bHmUID4hBXEgPRATFI9g3Ej6yQLhLZRCtfbHpcwCbmBw/Hfm1OViS8olFr/d3D8RXQ39GkMy0ZV0NubnFq7yuDrU11fD2MXxHgaqhoUlTmUoTu8PdPKmsuLAAXKPRu7ZAYo8kPDprNr69YS36nMuZ+Og/r2Luhwv13op1LuUUVvzwHYDGW+5e/3iR0W+vN98mV1dbi3q53OCoAQBUlDf93Qvz8/S29i3My9Nq61taXITP3nlD57ZSqRTuMg94enrC09sb3j6+CAwKRuvYOPTsNwB9Bw02eDtarwGDMP2xp7D8m8XXHrt04TwWvvUfvPzWB3q/8aYcP4o1PzcuaOUfEIh5H30GicS0uSbKerkJ29QZfL4wOx1rv31b5330bjIPjJw2Cx163mJSnhvVG5mVb+y6fkleJjZ+/4HBUZ/Q1vG444EXTZ0nlGp8E8fT8mYd6THins6vM1P7vxKbqKmvQE7ZOZzNPYBjl7bh4IV1+DstGefyDqC4Ohu19ZVQa5RgTICESa70dLdxcdCMiXf9wm5BtbISp0qPGt/4BnF+7bDsttVo59/R4mNfVVtTjUXvzW9yIg8MDkHnboYbqiT/urzJMHxFWSlGjZ1g8CRbUVaKLz54W+vkp1Kp0Do2Dm0TdC3O06hLz15QKOqReuLYtccyL17AudOn0LVXb/j4ajem2bVtM9568VnUy+UICAzCB18vQ3wHw7f+1dXW4osP3moyChAU0gqdunbX+zqu0WDxgneRn6PdppcxAQOH6e4F7+Pnh51bNjW5Q0EXjUaDhgYl5HV1qKqsQGlxEXKyMnHm1Ans3LwBf23dhA6JXQ0uW9y9Tz9UVVbgXMr1/vUX084h/dxZdOvVB17e169Tc86xc/MGvPPKbCgVCgSHtMKHS77XeVuhPhkp/yDrfNO1HG4k8/RC28Q+TR6vq67Aoe0r8edvX0KpaFpIxHXqhfEz5iGqrWVzX07u24zSgmy9zyvr69AqMhZBYW2aPH5s93ps/eUzKOS1el7d2CBo7COvQmb6okSvzp8/38hsQsfTgqZ0G/Z+8iQVa86nPREBg79XK0QGxqOVbzSCfSPh5xUCH1kAZFIvSCXuzZ80JEjR3H8Gn5x4C8vOfGnStiPb3IV3+38Obzejk4oMWrfiZ5QUFWLXH5uRl920/wgTBAwbNQbtOnRCZJvoa5O+/t65HdmZGThz6gT279qh81pqq/AIDBs1BuGRrTF4xCgEtwpFQW4Ojh7cj+zMDGzftB7lpU3bnguCBLeOvgMdu3ZH7/6DEK3nZLNtw1os/vAdrTa3EokEXXr2RpvYWCjqFUg9eeza79V/yK2YPe8thISG6X0/Nq3+HWWlxdi+cR1yLmfqfD+Gj74TCZ0SEdk6GoOGj4CqoQF/rE9GVWU5Duz+S6swuVHvAbcgqd8AxLRLaNK1ryAvF2/Mflprlr6lZDIPLFy23GChAjT+rksWvo+62usnMKlUim69+iCyTQzq5XKknDiKgtzGmf+3DB+JZ+e+iaCQViZnKci6gDVL3jB4krwqLDoBETEdIHVzQ31dDUryL6MwO73JpQ9BkCAusQ96DRtv8YkfANKO78WWnz4xemmFCQLadu6DoLDWUDUoUFaYg9yLZ6BS6b9EFtYmHgPH3I/YTr1MzsM5rxAEwXarF9kQFQDEqQmCBCG+rRHi1xpBXpEI8GoFX88geMn84C71hLtUBqngDongprtYYBKTFwYy5Ke0b/HRsdeh5rqvmzIwPNt9Dh5LfLbZxwKAbz5bYHIv99DwCEy8/0EAjYVDUYHptyvfMWEKoqJjkH7uDP5Yn2z8BVcMHTkaXXrq/xCtqqjAuhU/YeeWjU1W+QMaZ/r3GzwMY6feiy49koweb8lC0+dkhEVGYcK9/4JSocB/v/zU5Ne1jonDXZOnNXm8orwMD427HVHRMWgdE4fiwgKUl5WgqrwcNTXVJs9BAIC4hPb4btVGo9tVlJdh7S/LsXPrJuRmZTZ53i8gAAOGDse4qfehY5duRvdXVV6EY7vWQ61qQFlRDnIvplqlbbi3byCi4jsjpkNPxHfpC08f03s/XFVakIWT+7agvq4KRTkZKC+23vLcgkSCVlFt0aZdV7TvMQhhbcxvjsQ53ysIwhCrhbIjKgCIC2HwcvdFgE8YfDwC4C0LQNvQJLSLaNpsxRL7C3bj+X0zUK3Uvj7OwPDugC8wPm6qVY7T0lRWlCMvOwu1NdVwd5chJDQMEa3bOEXPiXq5HC898RCqKsrx1S+rdc67aFAqUS+Xo75eDqWiHkqFEvK6WlRWlKMwLw9pZ05j345t177R/zd5M2Lamn4iqigrRV52FurqaiGTeaBVWDjCIqPMev/kNZW4mHLI5O11YYIAiUQKN3cZPH384R8cDm8rLOtbXV6MS2fNu8ymJyEEQYCbzAMeXr7wDQxBQHAEBBPnROjDOf9KEITm3cojEsf/F2YlVAAQXaKC2mP6kHettr9z5Sl4cPt41DRcn6T0ZJcXMKvbK1Y7BnEMqoYGvPbMYzh+6CAW/7QKHRK7WLyvkqJCzLx3IspKivHuF0vRf8itVkxKbIlz/qQgCPpXgHJgNCmOuLTiqiyrrpDYMbALXkqaf+1nf/dAPJ74nNX2TxzHx2/OxbGD+zF0xOhmnfwBICQ07NpkQ3Na/BKHcELsAJaiAoC4NKWqHsVV5q+uZsj4uKnXFvUZED4EMonhPuLE+WxZuwp/blwLABg0fIRV9llVUQ6JRGL0TgfiOK6sAXDc+JaOiQoA4vJySs8Z38gMboI7ugQ33oIX62f/FdeIbVVXVuLrBe9f+1mQNP9jND8nGwf2/IXBI25vcjskcWiHGWPO1P5UCxUAxOXllqVZfZ+tvWMAAL4tbHlfAuz+cytqa67P8fj9h2VaPRHMVVFehnnPzYRUKsVjz75ojYjEfgy3EnRwVAAQl2ftEQAACPRo7PCnccgWyKQ5+E1rL6SlnsbM+ybi0L49Zs8nObRvD56+bxIuX7yI1979GOFR1l1oiticUxcA1AqYuLwqeQmq5aXw9Wx+W96rvKTeAAC5ynCrVOJ8ho+5C799/+21RjsAkJVxEa89PQPhkVHoN3gYOiR2RVRMLAKDguDp5Q1BIkGDQoHKygrkZWfhfGoK/t61HVkZFyGTeeD1jxdZbS4BsQ/eWO3tFztHc1ABQAiAnLI0dIoaaLX9XZ34V6U03iaWOBdvH198uuwnzH/x31pteYHGzoDrVvxs8r7atu+AOe8tRFxCe+MbE0dzVhAE0xbPcFB0CYAQANkl1l3L4+pywVQAtEyhEZH4cvnveHH+exYtAxwVHYPZ897Ckt/W0snfee0WO0Bz0QgAIQAyCq17J0/noO7oHToA9Wrjy90S58QEAWPunozR4ych9cQxHNjzF86eOoGsSxmoKCu9Nh+ACQKCgkMQHdcWnbr1QL9bhiKxR5JTdDokBm0RO0BzuczfQOoESIyZcdtnCPaNsuo+1VwFCaM629VwjQZyuRyMMXh4etLJvoXhnCsABAuCYHy1JAdGlwAIueJSkfUbetHJ3zUxQYCXtzc8vbzo5N8y7XX2kz9ABQAh11j7MgAhpMVy+uF/gAoAQq7JKjmDBrVC7BiEEMe3VewA1kAFACFXqDUNyCq27t0AhJCWhXOeJQjCGbFzWAMVAITc4Hz+P2JHIIQ4ttViB7AWKgAIucH5vH+g0ajFjkEIcVwrxA5gLVQAEHKD+oZaXCo+KXYMQogD4pxfFgShxQwTUgFAyE3O5Th1e29CiO38LnYAa6ICgJCbXCg4DLWmQewYhBDHQwUAIS2ZoqEOl4roMgAh5DrO+UVBEI6IncOaqAAgRIfU7L1iRyCEOJZfxA5gbVQAEKLDhfxDkCurxY5BCHEAnHMNgGVi57A2lykAGEe22BmI81BrVDidtUvsGIQQx7BdEITLYoewNpcpAMCQL3YE4lxOXd4hdgRCiGP4VuwAtuA6BQBQKXYA4lxKq3ORU3pW7BiEEBFxzosYY+vEzmELLlMAcKBC7AzE+ZzI3C52BEKIuP7HGGuR9wW7TAEAzi6IHYE4n7S8A6hX1ogdgxAiAs45Rwsd/gdcqQAATosdgDgflboBxzO3iR2DECKOTYIgnBc7hK24TAGg0WioACAWOZqxhToDEuKaPhY7gC25TAGgPN31PIBSsXMQ51NbX0GNgQhxMZzzw4Ig7BY7hy25TAEwf/58DQffKnYO4pwOp28AwMWOQQixn4ViB7A1lykAAIBp2EaxMxDnVFKdg4zCE2LHIITYAec8kzG2SuwctuZSBYBMaNgK8HqxcxDn9M+F9WJHIITYx6eMMbXYIWzNpQqA2RPWVXCwFWLnIM4pqySFGgMR0sJxzvMYY9+IncMeXKoAAACuUS8WOwNxXnvO/iZ2BEKIbb3HGHOJkWKXKwDmTEo+zMEPiZ2DOKfskjO4XEx3lBLSEnHOsxhjLbbxz81crgAAAK5hb4idgTivvTQKQEhL9Q5jTCl2CHtxyQJgzqRVW8GxS+wcxDnllp1HRuFxsWMQQqyIc57BGPte7Bz25JIFwBWviB2AOK/GUQDqC0BICzKfMaYSO4Q9uWwB8OrEVYfA+Xdi5yDOqaAig7oDEtJyHGWMLRc7hL25bAEAAHIPjxfAebbYOYhz2pX6ExrUCrFjEEKaiXP+LGPM5Yb0XLoAmH/Hz1Uazh4XOwdxTjX15Thwfo3YMQghzcA5/00QhL/FziEGly4AgKsTAvkXYucgzulw+gZU1hWLHYMQYgHOuRzAy2LnEIvLFwAAEFgc/AIH3yd2DuJ8VOoG7Ep1uUuHhLQUCwRBcNnLwFQAAHjiiW8aJA3CFAD5Ymchzudc7gFklaSIHYMQYoYrTX8+FDuHmKgAuOLlqSsLwHE357xW7CzE+Ww98Q1U6gaxYxBCTDeTMVYndggxUQFwg1cnrjrEgYkAd5lOUMQ6ymvy8XfaSrFjEEJMwDn/VRCEzWLnEBsVADeZM3H1Ng3YAwDXiJ2FOJdDF9ajqDJT7BiEEAM456UAnhU7hyOgAkCHORNWreAcj1ERQMyh4WpsOb4EnP7aEOLInhcEgW7dARUAer02cfV/oWH3g8OlWkOS5imouIgjF11+ZJEQh8Q53yYIwv/EzuEoqAAw4NVJq35jAiZxDmr3Rky29+xvKKvJEzsGIURbJQBq/HYDKgCMeOXuVesF4HYOXiZ2FuIcGtQKrD+yCBqNWuwohJArOOczBUG4LHYOR0IFgAlembhqNxdYP855mthZiHMorMi4smIgIURsnPOfBEH4VewcjoYKABPNGb8q3YOp+nPwP8XOQpzDP+nrqEEQISLjnF8C8LTYORwRFQBmmD1hXUV8gzAGHO9xTovBE8M459h49EvUN1BvKULEwDlXA5guCEKV2FkcERM7gLN6b82kUQLDTwBrJXYW4tg6RPbH3X1fEDsGIS6Hc/6mIAjzxc7hqGgEwEJzJq7eptJouoNjl9hZiGNLyzuIw+kbxY5BiEvhnG9ljL0tdg5HJhE7gDPb+fu5mkEdpyx3Cy+u4OBDGZib2JmIY8osPo02IZ3h7xUqdhRCWjzOeQZj7HbGmFzsLI6MLgFYyYerJiZwifA9gEFiZyGOyUvmj4eGfQhfz2CxoxDSYnHO5YyxgYyxE2JncXQ0AmAl238/Wzao45QfpBFFlQwYBDB3sTMRx9KgViC3LA1doodCYHT1jRAbeVQQhG1ih3AGNAJgAx+sntAaguQTAFPEzkIcT4/YEbi9xxNixyCkxeGcLxYE4RmxczgLKgBs6IPVk0dC4F8CrL3YWYhjua3rw+gdf4fYMQhpMTjnfzDG7mKM0fotJqJLADa0/fczGYMmdfnGTUAFZ7wPA/MUOxNxDJnFJxHqH4tg3yixoxDi9DjnpwDcIQgCTfozA40A2MmnyeMDFJDOATALYB5i5yHic5PIcO8tbyIisJ3YUQhxWpzzPAD9BEHIETuLs6ECwM4+WD8lGirN25zhfgZGIzAuzlvmj38NfR/+XtRPihBzcc5rGGODaca/ZagAEMmHqyYmcIH9hwoBEuLbGtOHvAOZm7fYUQhxGlfa/I4TBGGz2FmcFRUAIntv3eR2gprPBdh0MEjFzkPEERXUHtMGvQ43iUzsKIQ4PM45B/CgIAjLxc7izKgAcBDvJ0+LBdSzGfgjAPMROw+xv5hWXTC5/xxIJdRQkhBDOOczBUFYInYOZ0cFgIP5NHl8gIK7P8mhmcUYixQ7D7Gv+PAkTOz7MgSBrgoRogvn/EVBEBaKnaMloALAQS1d+rhbRWjZPRrgKQb0FzsPsZ+OUQMwrvdzYNQtkJCbzWeMvSl2iJaCCgAn8FHylB4arpkJhvvo8oBr6BI9DHf0fAqM0T9RQgCAc75QEIQXxc7RktCnixN5Y/P9fl4KxXTOMQMMPcXOQ2yrc+tbcGevZyDQTSLExXHO3xMEYa7YOVoaKgCc1PvJk7syzh+8chthuNh5iG0kRPTF+D6zIRHoBhHisl5jjH0gdoiWiAoAJ/f771Mk6W7q2xmEBxnHXWDwEjsTsa640B6Y2O8lSCW0wCRxHVdu9fu3IAhfip2lpaICoAVZ8Md074a6+rsEzqeBYQy1HG452gR3xuQBr8JdSstJkJaPc65mjM1gjP0gdpaWjAqAFurDteN8Ndx9LAOmgmMkjQw4v/CAeEwZ8Bq8ZP5iRyHEZjjn9QCmC4KwWuwsLR0VAC5g4YrJnkp3zQjG2TgAY8FYmNiZiGX8vUIxZcAcWkWQtEic82IA4wVBOCB2FldABYCL4RzswzUT+oFJxnKG0eDoyRj9PXAmMjdvTOz3EqJDEsWOQojVcM7PM8bGMMYyxM7iKuiD38W9u2JyK+bGRzDGbgfnI6n7oHOQCFKM6TkTiW2GiB2FkGbjnO8FcLcgCGViZ3ElVAAQLe8nT+7KNPxWMAwDY0MABIudieg3qOMU3NJxCuifMnFWnPOfATwqCIJC7Cyuhj41iF6cg723ZkKiAGEoGIYxYDDNH3A87cJ7465esyBzo3mexHlwzlUAXhIE4TOxs7gqKgCIWRasmxyn0mAA47w/GOvPwXswMFq+TmSBPhGY2O8lhPi2ETsKIUZxzgsBTBUEYY/YWVwZFQCkWd74/kEPd9/qXhKJ0IdzngSwJDDekYH619qbm0SGO5KeQseogWJHIUQvzvkBAJMFQcgTO4urowKAWN3CFZM9FTLejWlYEhh6Mo5uHOjMGHzFzuYK+rS7C8MSp9MaAsThcM4XM8ZmM8YaxM5CqAAgdsI52IcbprTRqNVdGBcSwZAIjkTGeEda4dD6IgLbYWzvZxHoTctEEPFxzkuvdPZbK3YWch0VAER0H/0+JZy7aRI4WHtwJHCGBHCewMDiqYOh5dwkMozo9gi6xQwXOwpxYZzz7QAeEAQhX+wsRBsVAMShfbz+3hC1Rhmr4TyGcSGGM8SA81gA0YwhinMWQo2MDOsQ2R+393iCe7r70PtE7IZzrgQwhzH2CWOMi52HNEUfCMSpLV36uFt5SHEYmCSSg0cALBJABAMP44yFADwYnIUw8BCABYOhxayryzmqGXgpBythjJdwoJQBJRognzGWD2jyGGP5XCLLe+WOn7wA/MAYGyF2btLycc5T0NjP/6TYWYh+VAAQl/LB71P8uaAOhpT5CxrmBwH+Gg33Exjz45z5cabxYxw+ADw5gyfjzAOAJxj34Jx5MMAT4DIOSMCYwAAJByQAJFf/zMAZODQcUDNADUDNWeOfOaAGh4oxVs856hmDnHNezwA5Z6wenNeDoZZxVsUFXsU4q+IcVYxpqjRcqBIkvIpxt/I6pbpk/tSVSnN/f41G8zCAhYyxQCu/tYSAc64A8B5j7H2a6Of4qAAgxMVoNJowAJ8zxqaKnYW0HJzzfYyxxxhj58TOQkxDBQAhLkqj0YwF8BVjrLXYWYjz4pxXAXiVMbaErvU7F0HsAIQQcQiCsAFAZ875J5xzGq4lZuOc/wqgsyAIX9PJ3/nQCAAhBBqNpj2ATxhjd4qdhTg+zvkRAM8KgrBf7CzEclQAEEKu0Wg0twP4lDHWSewsxPFwzvMZY3MA/Ejf+J0fFQCEEC2ccynnfCaAeYyxVmLnIeLjnNcBWMQYe48xViN2HmIdVAAQQnTinPtwzmcBeJExFiR2HmJ/nPN6AEsAfCAIQqHYeYh1UQFACDFIo9H4AZgN4HnGmJ/YeYjtXenitwzAu4Ig5Iqdh9gGFQCEEJNoNJogAC8CeJoKgZbpyol/OYC3BUG4LHYeYltUABBCzHJlROAxAM8yxtqInYc0H+e8Ao1D/Z/Toj2ugwoAQohFrkwWnIrGOQI9xc5DzMc5zwTwGWNsGU3ucz1UABBCmk2j0QwH8AyAsYyxFrPgUgu2m3P+FWNsNWNMLXYYIg4qAAghVnNlnYGHAMxgjLUTOQ65Aee8CMAPAL4TBOGCyHGIA6ACgBBidZxzxjkfhsa5AhMZYzKRI7kkzrkGwJ8AvmWMracV+siNqAAghNgU59yfc343gKkARjLG3MTO1JJxzjmA/QB+B7BKEIQ8kSMRB0UFACHEbjjngZzzCQCmARhO8wWsh3P+DxpP+isFQcgWOw9xfFQAEEJEodFoggGMATAawO2MsRCRIzkVznktgB0AtgLYTPftE3NRAUAIER3nXOCc90ZjQTAGQB/GGC1XfhPOeSoaT/hbGGN7GWNKsTMR50UFACHE4XDOAzjnAwEMYowN4pz3ZYx5ip3LnjjnKgAnAOwD8DeAv6lJD7EmKgAIIQ6Pc+7GOe8JYBCAvgC6AWjfUuYQXJm4dwnAKQBH0XjCPyQIQq2owUiLRgUAIcQpaTQaGWOsE+e8G4CuuFIUAGjtqIXBlRN9PmPsAuf8NGPsNOf8FGMshTrxEXujAoAQ0qJwzqUAWgOI5ZzHAYgFEAcgHEAIgGAAIYwxLysfVwGgFEDJlf8XAsi88t+lK/+/LAiCwprHJcRSVAAQQlySRqPxBBB85e4DH865OwAZY0x29c8A3AEIABRX/lMCUDDGlJxzBWOsDldO+vQNnhBCCCGEEEIIIYQQQgghhBBCCCGEEEIIIYQQQgghhBBCCCGEEEIIIYQQQgghhBBCCCGEEEIIIYQQQgghhBBCCCGEEEIIIYQQQgghhBBCCCGEEEIIIYQQQgghhBBCCCGEEEIIIYQQQgghhBBCCCGEEEIIIYQQQgghxHr+D/2PCniPHbllAAAAAElFTkSuQmCC;" vertex="1" parent="sNjBt-SSzu1dIGnqiuHq-1">
                    <mxGeometry x="1020" y="369.5" width="149" height="149" as="geometry"/>
                </mxCell>
                <mxCell id="vA7bYmdtT8BDFeEWD2Vv-30" value="" style="shape=image;verticalLabelPosition=bottom;labelBackgroundColor=#ffffff;verticalAlign=top;aspect=fixed;imageAspect=0;image=https://repository-images.githubusercontent.com/22978655/02926e00-499f-11ea-8f5e-67b263e61294;" vertex="1" parent="sNjBt-SSzu1dIGnqiuHq-1">
                    <mxGeometry x="39.99999999999999" y="510" width="280" height="140" as="geometry"/>
                </mxCell>
                <mxCell id="vA7bYmdtT8BDFeEWD2Vv-33" style="edgeStyle=orthogonalEdgeStyle;rounded=0;orthogonalLoop=1;jettySize=auto;html=1;exitX=0.25;exitY=0;exitDx=0;exitDy=0;entryX=0.75;entryY=1;entryDx=0;entryDy=0;fontSize=18;strokeWidth=3;" edge="1" parent="sNjBt-SSzu1dIGnqiuHq-1" source="vA7bYmdtT8BDFeEWD2Vv-32" target="vA7bYmdtT8BDFeEWD2Vv-3">
                    <mxGeometry relative="1" as="geometry"/>
                </mxCell>
                <mxCell id="vA7bYmdtT8BDFeEWD2Vv-32" value="Push Notificaitons" style="shape=image;verticalLabelPosition=bottom;labelBackgroundColor=#ffffff;verticalAlign=top;aspect=fixed;imageAspect=0;image=https://miro.medium.com/max/1024/1*xP2U5u21teQMEZ7NFzC-Hw.png;" vertex="1" parent="sNjBt-SSzu1dIGnqiuHq-1">
                    <mxGeometry x="350.01" y="510" width="286.44" height="130" as="geometry"/>
                </mxCell>
                <mxCell id="vA7bYmdtT8BDFeEWD2Vv-35" value="Object Storage" style="outlineConnect=0;dashed=0;verticalLabelPosition=bottom;verticalAlign=top;align=center;html=1;shape=mxgraph.aws3.bucket_with_objects;fillColor=#E05243;gradientColor=none;labelBackgroundColor=none;fontSize=18;" vertex="1" parent="sNjBt-SSzu1dIGnqiuHq-1">
                    <mxGeometry x="1140" y="197.32" width="110" height="113.37" as="geometry"/>
                </mxCell>
            </root>
        </mxGraphModel>
    </diagram>
</mxfile>